<svg xmlns="http://www.w3.org/2000/svg" viewBox="0 0 44.15 62.54"><defs><style>.cls-1{fill:#4eb4f1;}</style></defs><g id="Layer_2" data-name="Layer 2"><g id="Layer_1-2" data-name="Layer 1"><path class="cls-1" d="M15.88,51h1l1.36,0,1.14,0-.1.4a3.52,3.52,0,0,0-1.06.15,1.12,1.12,0,0,0-.59.48A4.39,4.39,0,0,0,17.18,53L14.54,63c-.19.73-.2,1.2,0,1.39s.56.3,1.23.33l-.08.4c-.31,0-.68,0-1.12,0H11.68c-.47,0-.84,0-1.12,0l.08-.4a4.67,4.67,0,0,0,1.07-.16A1.06,1.06,0,0,0,12.3,64,3.91,3.91,0,0,0,12.7,63l2.9-10.78-8.3,13H6.86L5.5,52,2.66,62.76a4.3,4.3,0,0,0-.16,1.13.62.62,0,0,0,.38.58A3.3,3.3,0,0,0,4,64.68l-.1.4c-.23,0-.53,0-.92,0H.86c-.35,0-.63,0-.86,0l.1-.4a2.16,2.16,0,0,0,1.43-.43,3.4,3.4,0,0,0,.67-1.49L4.8,53c.19-.73.2-1.2,0-1.39s-.56-.3-1.23-.33l.1-.4.79,0,1,0,.94,0,.82,0,1.1,11.86Z" transform="translate(0 -2.64)"/><path class="cls-1" d="M19.64,61.84a5.47,5.47,0,0,0-.89,1.66.78.78,0,0,0,.23.89,2.15,2.15,0,0,0,1.2.29l-.1.4c-.37,0-.76,0-1.16,0H17c-.23,0-.45,0-.66,0l.1-.4a2.5,2.5,0,0,0,.89-.49,6.3,6.3,0,0,0,1.11-1.25L27,50.82h.3l.8,12.58a1.43,1.43,0,0,0,.37,1,1,1,0,0,0,.61.29l-.08.4c-.27,0-.6,0-1,0H25.48c-.43,0-.77,0-1,0l.08-.4a2.45,2.45,0,0,0,1.36-.35c.27-.21.39-.65.36-1.33l-.54-9.88.14,0Zm1.6-2.52h5.84l-.16.4h-6Z" transform="translate(0 -2.64)"/><path class="cls-1" d="M42.78,51.06a1.65,1.65,0,0,0-.59.14,2.62,2.62,0,0,0-.51.3A9.4,9.4,0,0,0,40.16,53a16.81,16.81,0,0,0-1.78,2.65,28.74,28.74,0,0,0-1.8,4l-1.18.1c0-.61-.12-1.28-.21-2s-.19-1.43-.31-2.14a15.62,15.62,0,0,0-.45-2,5,5,0,0,0-.64-1.42,1.07,1.07,0,0,0-.87-.53.8.8,0,0,0-.57.21,1.69,1.69,0,0,0-.39.73l-.56,1.64H31l.66-1.94a3.61,3.61,0,0,1,.7-1.31,1.64,1.64,0,0,1,1.26-.43,2,2,0,0,1,1.74.89,6.77,6.77,0,0,1,1,2.52,36.19,36.19,0,0,1,.6,3.83,19.05,19.05,0,0,1,1.73-3.41,16,16,0,0,1,2-2.53,7.08,7.08,0,0,1,1.09-.88A2.26,2.26,0,0,1,43,50.64a1,1,0,0,1,.92.37,1.23,1.23,0,0,1,.2.81,1.67,1.67,0,0,1-.31.84,1,1,0,0,1-.87.44.66.66,0,0,1-.62-.27,1,1,0,0,1-.14-.59,1.41,1.41,0,0,1,.2-.63,2.37,2.37,0,0,1,.44-.55h-.06ZM35.94,63c-.17.73-.19,1.2,0,1.39s.55.3,1.23.33l-.1.4-.7,0-.86,0h-2.4c-.47,0-.85,0-1.14,0l.1-.4a4.76,4.76,0,0,0,1.06-.16,1.08,1.08,0,0,0,.6-.48,3.91,3.91,0,0,0,.4-1.08l1.38-5.48.7,1.26.66-.38.68-1.6Z" transform="translate(0 -2.64)"/><path class="cls-1" d="M15.88,27h1l1.36,0,1.14,0-.1.4a3.52,3.52,0,0,0-1.06.15,1.12,1.12,0,0,0-.59.48A4.39,4.39,0,0,0,17.18,29L14.54,39c-.19.73-.2,1.2,0,1.39s.56.3,1.23.33l-.08.4c-.31,0-.68,0-1.12,0H11.68c-.47,0-.84,0-1.12,0l.08-.4a4.67,4.67,0,0,0,1.07-.16A1.06,1.06,0,0,0,12.3,40,3.91,3.91,0,0,0,12.7,39l2.9-10.78-8.3,13H6.86L5.5,28,2.66,38.76a4.3,4.3,0,0,0-.16,1.13.62.62,0,0,0,.38.58A3.3,3.3,0,0,0,4,40.68l-.1.4c-.23,0-.53,0-.92,0H.86c-.35,0-.63,0-.86,0l.1-.4a2.16,2.16,0,0,0,1.43-.43,3.4,3.4,0,0,0,.67-1.49L4.8,29c.19-.73.2-1.2,0-1.39s-.56-.3-1.23-.33l.1-.4.79,0,1,0,.94,0,.82,0,1.1,11.86Z" transform="translate(0 -2.64)"/><path class="cls-1" d="M19.64,37.84a5.47,5.47,0,0,0-.89,1.66.78.78,0,0,0,.23.89,2.15,2.15,0,0,0,1.2.29l-.1.4c-.37,0-.76,0-1.16,0H17c-.23,0-.45,0-.66,0l.1-.4a2.5,2.5,0,0,0,.89-.49,6.3,6.3,0,0,0,1.11-1.25L27,26.82h.3l.8,12.58a1.43,1.43,0,0,0,.37,1,1,1,0,0,0,.61.29l-.08.4c-.27,0-.6,0-1,0H25.48c-.43,0-.77,0-1,0l.08-.4a2.45,2.45,0,0,0,1.36-.35c.27-.21.39-.65.36-1.33l-.54-9.88.14,0Zm1.6-2.52h5.84l-.16.4h-6Z" transform="translate(0 -2.64)"/><path class="cls-1" d="M42.78,27.06a1.65,1.65,0,0,0-.59.14,2.62,2.62,0,0,0-.51.3A9.4,9.4,0,0,0,40.16,29a16.81,16.81,0,0,0-1.78,2.65,28.74,28.74,0,0,0-1.8,4l-1.18.1c0-.61-.12-1.28-.21-2s-.19-1.43-.31-2.14a15.62,15.62,0,0,0-.45-1.95,5,5,0,0,0-.64-1.42,1.07,1.07,0,0,0-.87-.53.8.8,0,0,0-.57.21,1.69,1.69,0,0,0-.39.73l-.56,1.64H31l.66-1.94a3.61,3.61,0,0,1,.7-1.31,1.64,1.64,0,0,1,1.26-.43,2,2,0,0,1,1.74.89,6.77,6.77,0,0,1,1,2.52,36.19,36.19,0,0,1,.6,3.83,19.05,19.05,0,0,1,1.73-3.41,16,16,0,0,1,2-2.53,7.08,7.08,0,0,1,1.09-.88A2.26,2.26,0,0,1,43,26.64a1,1,0,0,1,.92.37,1.23,1.23,0,0,1,.2.81,1.67,1.67,0,0,1-.31.84,1,1,0,0,1-.87.44.66.66,0,0,1-.62-.27,1,1,0,0,1-.14-.59,1.41,1.41,0,0,1,.2-.63,2.37,2.37,0,0,1,.44-.55h-.06ZM35.94,39c-.17.73-.19,1.2,0,1.39s.55.3,1.23.33l-.1.4-.7,0-.86,0h-2.4c-.47,0-.85,0-1.14,0l.1-.4a4.76,4.76,0,0,0,1.06-.16,1.08,1.08,0,0,0,.6-.48,3.91,3.91,0,0,0,.4-1.08l1.38-5.48.7,1.26.66-.38.68-1.6Z" transform="translate(0 -2.64)"/><path class="cls-1" d="M15.88,3h1L18.2,3l1.14,0-.1.4a3.52,3.52,0,0,0-1.06.15,1.12,1.12,0,0,0-.59.48A4.39,4.39,0,0,0,17.18,5L14.54,15c-.19.73-.2,1.2,0,1.39s.56.3,1.23.33l-.08.4c-.31,0-.68,0-1.12,0H11.68c-.47,0-.84,0-1.12,0l.08-.4a4.67,4.67,0,0,0,1.07-.16A1.06,1.06,0,0,0,12.3,16,3.91,3.91,0,0,0,12.7,15L15.6,4.18l-8.3,13H6.86L5.5,4,2.66,14.76a4.3,4.3,0,0,0-.16,1.13.62.62,0,0,0,.38.58A3.3,3.3,0,0,0,4,16.68l-.1.4c-.23,0-.53,0-.92,0H.86c-.35,0-.63,0-.86,0l.1-.4a2.16,2.16,0,0,0,1.43-.43,3.4,3.4,0,0,0,.67-1.49L4.8,5c.19-.73.2-1.2,0-1.39s-.56-.3-1.23-.33l.1-.4.79,0,1,0,.94,0,.82,0,1.1,11.86Z" transform="translate(0 -2.64)"/><path class="cls-1" d="M19.64,13.84a5.47,5.47,0,0,0-.89,1.66.78.78,0,0,0,.23.89,2.15,2.15,0,0,0,1.2.29l-.1.4c-.37,0-.76,0-1.16,0H17c-.23,0-.45,0-.66,0l.1-.4a2.5,2.5,0,0,0,.89-.49,6.3,6.3,0,0,0,1.11-1.25L27,2.82h.3l.8,12.58a1.43,1.43,0,0,0,.37,1,1,1,0,0,0,.61.29l-.08.4c-.27,0-.6,0-1,0H25.48c-.43,0-.77,0-1,0l.08-.4a2.45,2.45,0,0,0,1.36-.35c.27-.21.39-.65.36-1.33L25.7,5.12l.14,0Zm1.6-2.52h5.84l-.16.4h-6Z" transform="translate(0 -2.64)"/><path class="cls-1" d="M42.78,3.06a1.65,1.65,0,0,0-.59.14,2.62,2.62,0,0,0-.51.3A9.4,9.4,0,0,0,40.16,5a16.81,16.81,0,0,0-1.78,2.65,28.74,28.74,0,0,0-1.8,4l-1.18.1c0-.61-.12-1.28-.21-2S35,8.35,34.88,7.64a15.62,15.62,0,0,0-.45-1.95,5,5,0,0,0-.64-1.42,1.07,1.07,0,0,0-.87-.53.8.8,0,0,0-.57.21,1.69,1.69,0,0,0-.39.73L31.4,6.32H31l.66-1.94a3.61,3.61,0,0,1,.7-1.31,1.64,1.64,0,0,1,1.26-.43,2,2,0,0,1,1.74.89,6.77,6.77,0,0,1,1,2.52,36.19,36.19,0,0,1,.6,3.83,19.05,19.05,0,0,1,1.73-3.41,16,16,0,0,1,2-2.53,7.08,7.08,0,0,1,1.09-.88A2.26,2.26,0,0,1,43,2.64a1,1,0,0,1,.92.37,1.23,1.23,0,0,1,.2.81,1.67,1.67,0,0,1-.31.84A1,1,0,0,1,43,5.1a.66.66,0,0,1-.62-.27,1,1,0,0,1-.14-.59,1.41,1.41,0,0,1,.2-.63,2.37,2.37,0,0,1,.44-.55h-.06ZM35.94,15c-.17.73-.19,1.2,0,1.39s.55.3,1.23.33l-.1.4-.7,0-.86,0h-2.4c-.47,0-.85,0-1.14,0l.1-.4a4.76,4.76,0,0,0,1.06-.16,1.08,1.08,0,0,0,.6-.48,3.91,3.91,0,0,0,.4-1.08l1.38-5.48.7,1.26.66-.38.68-1.6Z" transform="translate(0 -2.64)"/></g></g></svg>