<svg xmlns="http://www.w3.org/2000/svg" viewBox="0 0 49.91 66.54"><defs><style>.cls-1{fill:#ffdc00;}</style></defs><g id="Layer_2" data-name="Layer 2"><g id="Layer_1-2" data-name="Layer 1"><path class="cls-1" d="M9.1,53a4.79,4.79,0,0,1-1.71-.28L5.9,52.18a4.77,4.77,0,0,0-1.72-.28,1.3,1.3,0,0,0-1,.35,1.35,1.35,0,0,0-.3,1,1.29,1.29,0,0,0,.41,1,2.18,2.18,0,0,0,1.07.5l-.06.4a3.45,3.45,0,0,1-1.47-.65,2,2,0,0,1-.73-1.67A2.41,2.41,0,0,1,2.68,51a2.18,2.18,0,0,1,1.74-.7,3.19,3.19,0,0,1,1.45.32,7.51,7.51,0,0,1,1.2.75,7.9,7.9,0,0,0,1.19.75,3.09,3.09,0,0,0,1.42.32,5.69,5.69,0,0,0,1.79-.25c.51-.17,1.1-.38,1.75-.65a4.49,4.49,0,0,1,.82-1c.27-.23.5-.25.7-.08s.15.31,0,.54a3.18,3.18,0,0,1-1.32.74,9.17,9.17,0,0,0-2.8,3,16.13,16.13,0,0,0-1.7,4.18L7.66,63.78a10.64,10.64,0,0,1-1,2.51,5.7,5.7,0,0,1-1.56,1.85,3.52,3.52,0,0,1-2.19.7,3.38,3.38,0,0,1-1.45-.27.92.92,0,0,1-.59-.83,1.16,1.16,0,0,1,.29-.81A1,1,0,0,1,2,66.56a.81.81,0,0,1,.59.23.84.84,0,0,1,.25.57.86.86,0,0,1-.22.63,1.79,1.79,0,0,1-.58.43,2.21,2.21,0,0,0,.32.07,2.34,2.34,0,0,0,.38,0A1.84,1.84,0,0,0,4.1,68,4.18,4.18,0,0,0,5,66.53a16.94,16.94,0,0,0,.65-2l.59-2.31.6-2.34a11.72,11.72,0,0,1,1.44-3.41,12.35,12.35,0,0,1,2.15-2.51,32.7,32.7,0,0,1,2.63-2.1l-1,.46a10.31,10.31,0,0,1-1,.39,7.36,7.36,0,0,1-1,.26A5.5,5.5,0,0,1,9.1,53Zm2.12,4.74-.06.4H4.74l.06-.4Z" transform="translate(-0.9 -2.3)"/><path class="cls-1" d="M25.34,53.24a2.77,2.77,0,0,0,.12-1.14.79.79,0,0,0-.43-.58,2.43,2.43,0,0,0-1-.2l.1-.4L25,51l1.09,0,1,0,.85,0-.1.4a2.85,2.85,0,0,0-1.08.2,1.31,1.31,0,0,0-.63.58,4.71,4.71,0,0,0-.41,1.14l-1.56,6a10.81,10.81,0,0,1-2,4.24,5.39,5.39,0,0,1-1.79,1.35,5.28,5.28,0,0,1-2.31.51,5.78,5.78,0,0,1-1.77-.25,2.89,2.89,0,0,1-1.31-.83,2.85,2.85,0,0,1-.7-2,12.92,12.92,0,0,1,.5-3L16.54,53c.19-.73.2-1.2.05-1.39s-.56-.3-1.23-.33l.12-.4,1.1,0,1.48,0,1.36,0,1.14,0-.12.4a3.52,3.52,0,0,0-1.06.15,1.12,1.12,0,0,0-.59.48A4.39,4.39,0,0,0,18.38,53l-1.76,6.62a13.25,13.25,0,0,0-.43,2.5A2.65,2.65,0,0,0,16.63,64a2.28,2.28,0,0,0,1.91.68A4.38,4.38,0,0,0,21,64a5.1,5.1,0,0,0,1.64-1.85,11.32,11.32,0,0,0,1-2.66Z" transform="translate(-0.9 -2.3)"/><path class="cls-1" d="M37.06,60.88c-.08.21-.16.46-.24.74l-.26.9c-.07.25-.15.62-.26,1.09s-.2,1-.28,1.47c-.68,0-1.45,0-2.3,0h-6c-.74,0-1.44,0-2.09,0l.1-.4a4.76,4.76,0,0,0,1.06-.16,1,1,0,0,0,.59-.48A4.63,4.63,0,0,0,27.82,63L30.48,53c.2-.73.22-1.2.07-1.39s-.56-.3-1.23-.33l.1-.4,1.1,0L32,51l1.39,0,1.15,0-.1.4a3.52,3.52,0,0,0-1.06.15,1.18,1.18,0,0,0-.6.48A4,4,0,0,0,32.34,53L29.68,63c-.2.73-.22,1.19-.07,1.38s.57.28,1.25.28h1.46a4.7,4.7,0,0,0,2-.36,3,3,0,0,0,1.26-1.18,11.85,11.85,0,0,0,1-2.2Z" transform="translate(-0.9 -2.3)"/><path class="cls-1" d="M49.44,51.06a1.65,1.65,0,0,0-.59.14,2.62,2.62,0,0,0-.51.3A9.4,9.4,0,0,0,46.82,53,16.81,16.81,0,0,0,45,55.64a28.74,28.74,0,0,0-1.8,4l-1.18.1c-.05-.61-.12-1.28-.21-2s-.19-1.43-.31-2.14a15.62,15.62,0,0,0-.45-2,5,5,0,0,0-.64-1.42,1.07,1.07,0,0,0-.87-.53A.8.8,0,0,0,39,52a1.69,1.69,0,0,0-.39.73l-.56,1.64h-.44l.66-1.94a3.61,3.61,0,0,1,.7-1.31,1.64,1.64,0,0,1,1.26-.43,2,2,0,0,1,1.74.89,6.77,6.77,0,0,1,1,2.52,36.19,36.19,0,0,1,.6,3.83,19.05,19.05,0,0,1,1.73-3.41,16,16,0,0,1,2-2.53,7.08,7.08,0,0,1,1.09-.88,2.26,2.26,0,0,1,1.27-.42,1,1,0,0,1,.92.37,1.23,1.23,0,0,1,.2.81,1.67,1.67,0,0,1-.31.84,1,1,0,0,1-.87.44.66.66,0,0,1-.62-.27,1,1,0,0,1-.14-.59,1.41,1.41,0,0,1,.2-.63,2.37,2.37,0,0,1,.44-.55h-.06ZM42.6,63c-.17.73-.19,1.2-.05,1.39s.55.3,1.23.33l-.1.4-.7,0-.86,0h-2.4c-.47,0-.85,0-1.14,0l.1-.4a4.76,4.76,0,0,0,1.06-.16,1.08,1.08,0,0,0,.6-.48,3.91,3.91,0,0,0,.4-1.08l1.38-5.48.7,1.26.66-.38.68-1.6Z" transform="translate(-0.9 -2.3)"/><path class="cls-1" d="M9.1,29a4.79,4.79,0,0,1-1.71-.28L5.9,28.18a4.77,4.77,0,0,0-1.72-.28,1.3,1.3,0,0,0-1,.35,1.35,1.35,0,0,0-.3,1,1.29,1.29,0,0,0,.41,1,2.18,2.18,0,0,0,1.07.5l-.06.4a3.45,3.45,0,0,1-1.47-.65,2,2,0,0,1-.73-1.67A2.41,2.41,0,0,1,2.68,27a2.18,2.18,0,0,1,1.74-.7,3.19,3.19,0,0,1,1.45.32,7.51,7.51,0,0,1,1.2.75,7.9,7.9,0,0,0,1.19.75,3.09,3.09,0,0,0,1.42.32,5.69,5.69,0,0,0,1.79-.25c.51-.17,1.1-.38,1.75-.65a4.49,4.49,0,0,1,.82-1c.27-.23.5-.25.7-.08s.15.31,0,.54a3.18,3.18,0,0,1-1.32.74,9.17,9.17,0,0,0-2.8,3,16.13,16.13,0,0,0-1.7,4.18L7.66,39.78a10.64,10.64,0,0,1-1,2.51,5.7,5.7,0,0,1-1.56,1.85,3.52,3.52,0,0,1-2.19.7,3.38,3.38,0,0,1-1.45-.27.92.92,0,0,1-.59-.83,1.16,1.16,0,0,1,.29-.81A1,1,0,0,1,2,42.56a.81.81,0,0,1,.59.23.84.84,0,0,1,.25.57.86.86,0,0,1-.22.63,1.79,1.79,0,0,1-.58.43,2.21,2.21,0,0,0,.32.07,2.34,2.34,0,0,0,.38,0A1.84,1.84,0,0,0,4.1,44,4.18,4.18,0,0,0,5,42.53a16.94,16.94,0,0,0,.65-2l.59-2.31.6-2.34a11.72,11.72,0,0,1,1.44-3.41,12.35,12.35,0,0,1,2.15-2.51,32.7,32.7,0,0,1,2.63-2.1l-1,.46a10.31,10.31,0,0,1-1,.39,7.36,7.36,0,0,1-1,.26A5.5,5.5,0,0,1,9.1,29Zm2.12,4.74-.06.4H4.74l.06-.4Z" transform="translate(-0.9 -2.3)"/><path class="cls-1" d="M25.34,29.24a2.77,2.77,0,0,0,.12-1.14.79.79,0,0,0-.43-.58,2.43,2.43,0,0,0-1-.2l.1-.4L25,27l1.09,0,1,0,.85,0-.1.4a2.85,2.85,0,0,0-1.08.2,1.31,1.31,0,0,0-.63.58,4.71,4.71,0,0,0-.41,1.14l-1.56,6a10.81,10.81,0,0,1-2,4.24,5.39,5.39,0,0,1-1.79,1.35,5.28,5.28,0,0,1-2.31.51,5.78,5.78,0,0,1-1.77-.25,2.89,2.89,0,0,1-1.31-.83,2.85,2.85,0,0,1-.7-2,12.92,12.92,0,0,1,.5-3L16.54,29c.19-.73.2-1.2.05-1.39s-.56-.3-1.23-.33l.12-.4,1.1,0,1.48,0,1.36,0,1.14,0-.12.4a3.52,3.52,0,0,0-1.06.15,1.12,1.12,0,0,0-.59.48A4.39,4.39,0,0,0,18.38,29l-1.76,6.62a13.25,13.25,0,0,0-.43,2.5A2.65,2.65,0,0,0,16.63,40a2.28,2.28,0,0,0,1.91.68A4.38,4.38,0,0,0,21,40a5.1,5.1,0,0,0,1.64-1.85,11.32,11.32,0,0,0,1-2.66Z" transform="translate(-0.9 -2.3)"/><path class="cls-1" d="M37.06,36.88c-.08.21-.16.46-.24.74l-.26.9c-.07.25-.15.62-.26,1.09s-.2,1-.28,1.47c-.68,0-1.45,0-2.3,0h-6c-.74,0-1.44,0-2.09,0l.1-.4a4.76,4.76,0,0,0,1.06-.16,1,1,0,0,0,.59-.48A4.63,4.63,0,0,0,27.82,39L30.48,29c.2-.73.22-1.2.07-1.39s-.56-.3-1.23-.33l.1-.4,1.1,0L32,27l1.39,0,1.15,0-.1.4a3.52,3.52,0,0,0-1.06.15,1.18,1.18,0,0,0-.6.48A4,4,0,0,0,32.34,29L29.68,39c-.2.73-.22,1.19-.07,1.38s.57.28,1.25.28h1.46a4.7,4.7,0,0,0,2-.36,3,3,0,0,0,1.26-1.18,11.85,11.85,0,0,0,1-2.2Z" transform="translate(-0.9 -2.3)"/><path class="cls-1" d="M49.44,27.06a1.65,1.65,0,0,0-.59.14,2.62,2.62,0,0,0-.51.3A9.4,9.4,0,0,0,46.82,29,16.81,16.81,0,0,0,45,31.64a28.74,28.74,0,0,0-1.8,4l-1.18.1c-.05-.61-.12-1.28-.21-2s-.19-1.43-.31-2.14a15.62,15.62,0,0,0-.45-1.95,5,5,0,0,0-.64-1.42,1.07,1.07,0,0,0-.87-.53A.8.8,0,0,0,39,28a1.69,1.69,0,0,0-.39.73l-.56,1.64h-.44l.66-1.94a3.61,3.61,0,0,1,.7-1.31,1.64,1.64,0,0,1,1.26-.43,2,2,0,0,1,1.74.89,6.77,6.77,0,0,1,1,2.52,36.19,36.19,0,0,1,.6,3.83,19.05,19.05,0,0,1,1.73-3.41,16,16,0,0,1,2-2.53,7.08,7.08,0,0,1,1.09-.88,2.26,2.26,0,0,1,1.27-.42,1,1,0,0,1,.92.37,1.23,1.23,0,0,1,.2.81,1.67,1.67,0,0,1-.31.84,1,1,0,0,1-.87.44.66.66,0,0,1-.62-.27,1,1,0,0,1-.14-.59,1.41,1.41,0,0,1,.2-.63,2.37,2.37,0,0,1,.44-.55h-.06ZM42.6,39c-.17.73-.19,1.2-.05,1.39s.55.3,1.23.33l-.1.4-.7,0-.86,0h-2.4c-.47,0-.85,0-1.14,0l.1-.4a4.76,4.76,0,0,0,1.06-.16,1.08,1.08,0,0,0,.6-.48,3.91,3.91,0,0,0,.4-1.08l1.38-5.48.7,1.26.66-.38.68-1.6Z" transform="translate(-0.9 -2.3)"/><path class="cls-1" d="M9.1,5a4.79,4.79,0,0,1-1.71-.28L5.9,4.18A4.77,4.77,0,0,0,4.18,3.9a1.3,1.3,0,0,0-1,.35,1.35,1.35,0,0,0-.3,1,1.29,1.29,0,0,0,.41,1,2.18,2.18,0,0,0,1.07.5l-.06.4a3.45,3.45,0,0,1-1.47-.65A2,2,0,0,1,2.1,4.76,2.41,2.41,0,0,1,2.68,3a2.18,2.18,0,0,1,1.74-.7,3.19,3.19,0,0,1,1.45.32,7.51,7.51,0,0,1,1.2.75,7.9,7.9,0,0,0,1.19.75,3.09,3.09,0,0,0,1.42.32,5.69,5.69,0,0,0,1.79-.25c.51-.17,1.1-.38,1.75-.65a4.49,4.49,0,0,1,.82-1c.27-.23.5-.25.7-.08s.15.31,0,.54a3.18,3.18,0,0,1-1.32.74,9.17,9.17,0,0,0-2.8,3,16.13,16.13,0,0,0-1.7,4.18L7.66,15.78a10.64,10.64,0,0,1-1,2.51,5.7,5.7,0,0,1-1.56,1.85,3.52,3.52,0,0,1-2.19.7,3.38,3.38,0,0,1-1.45-.27.92.92,0,0,1-.59-.83,1.16,1.16,0,0,1,.29-.81A1,1,0,0,1,2,18.56a.81.81,0,0,1,.59.23.84.84,0,0,1,.25.57.86.86,0,0,1-.22.63,1.79,1.79,0,0,1-.58.43,2.21,2.21,0,0,0,.32.07,2.34,2.34,0,0,0,.38,0A1.84,1.84,0,0,0,4.1,20,4.18,4.18,0,0,0,5,18.53a16.94,16.94,0,0,0,.65-2l.59-2.31.6-2.34A11.72,11.72,0,0,1,8.28,8.43a12.35,12.35,0,0,1,2.15-2.51,32.7,32.7,0,0,1,2.63-2.1l-1,.46a10.31,10.31,0,0,1-1,.39,7.36,7.36,0,0,1-1,.26A5.5,5.5,0,0,1,9.1,5Zm2.12,4.74-.06.4H4.74l.06-.4Z" transform="translate(-0.9 -2.3)"/><path class="cls-1" d="M25.34,5.24a2.77,2.77,0,0,0,.12-1.14A.79.79,0,0,0,25,3.52a2.43,2.43,0,0,0-1-.2l.1-.4L25,3l1.09,0,1,0,.85,0-.1.4a2.85,2.85,0,0,0-1.08.2,1.31,1.31,0,0,0-.63.58,4.71,4.71,0,0,0-.41,1.14l-1.56,6a10.81,10.81,0,0,1-2,4.24,5.39,5.39,0,0,1-1.79,1.35,5.28,5.28,0,0,1-2.31.51,5.78,5.78,0,0,1-1.77-.25,2.89,2.89,0,0,1-1.31-.83,2.85,2.85,0,0,1-.7-2,12.92,12.92,0,0,1,.5-3L16.54,5c.19-.73.2-1.2.05-1.39s-.56-.3-1.23-.33l.12-.4,1.1,0,1.48,0,1.36,0,1.14,0-.12.4a3.52,3.52,0,0,0-1.06.15,1.12,1.12,0,0,0-.59.48A4.39,4.39,0,0,0,18.38,5l-1.76,6.62a13.25,13.25,0,0,0-.43,2.5A2.65,2.65,0,0,0,16.63,16a2.28,2.28,0,0,0,1.91.68A4.38,4.38,0,0,0,21,16a5.1,5.1,0,0,0,1.64-1.85,11.32,11.32,0,0,0,1-2.66Z" transform="translate(-0.9 -2.3)"/><path class="cls-1" d="M37.06,12.88c-.08.21-.16.46-.24.74l-.26.9c-.07.25-.15.62-.26,1.09s-.2,1-.28,1.47c-.68,0-1.45,0-2.3,0h-6c-.74,0-1.44,0-2.09,0l.1-.4a4.76,4.76,0,0,0,1.06-.16,1,1,0,0,0,.59-.48A4.63,4.63,0,0,0,27.82,15L30.48,5c.2-.73.22-1.2.07-1.39s-.56-.3-1.23-.33l.1-.4,1.1,0L32,3l1.39,0,1.15,0-.1.4a3.52,3.52,0,0,0-1.06.15,1.18,1.18,0,0,0-.6.48A4,4,0,0,0,32.34,5L29.68,15c-.2.73-.22,1.19-.07,1.38s.57.28,1.25.28h1.46a4.7,4.7,0,0,0,2-.36,3,3,0,0,0,1.26-1.18,11.85,11.85,0,0,0,1-2.2Z" transform="translate(-0.9 -2.3)"/><path class="cls-1" d="M49.44,3.06a1.65,1.65,0,0,0-.59.14,2.62,2.62,0,0,0-.51.3A9.4,9.4,0,0,0,46.82,5,16.81,16.81,0,0,0,45,7.64a28.74,28.74,0,0,0-1.8,4l-1.18.1c-.05-.61-.12-1.28-.21-2s-.19-1.43-.31-2.14a15.62,15.62,0,0,0-.45-1.95,5,5,0,0,0-.64-1.42,1.07,1.07,0,0,0-.87-.53A.8.8,0,0,0,39,4a1.69,1.69,0,0,0-.39.73l-.56,1.64h-.44l.66-1.94A3.61,3.61,0,0,1,39,3.07a1.64,1.64,0,0,1,1.26-.43A2,2,0,0,1,42,3.53a6.77,6.77,0,0,1,1,2.52,36.19,36.19,0,0,1,.6,3.83,19.05,19.05,0,0,1,1.73-3.41,16,16,0,0,1,2-2.53,7.08,7.08,0,0,1,1.09-.88,2.26,2.26,0,0,1,1.27-.42A1,1,0,0,1,50.6,3a1.23,1.23,0,0,1,.2.81,1.67,1.67,0,0,1-.31.84,1,1,0,0,1-.87.44A.66.66,0,0,1,49,4.83a1,1,0,0,1-.14-.59,1.41,1.41,0,0,1,.2-.63,2.37,2.37,0,0,1,.44-.55h-.06ZM42.6,15c-.17.73-.19,1.2-.05,1.39s.55.3,1.23.33l-.1.4-.7,0-.86,0h-2.4c-.47,0-.85,0-1.14,0l.1-.4a4.76,4.76,0,0,0,1.06-.16,1.08,1.08,0,0,0,.6-.48,3.91,3.91,0,0,0,.4-1.08l1.38-5.48.7,1.26.66-.38.68-1.6Z" transform="translate(-0.9 -2.3)"/></g></g></svg>