<svg xmlns="http://www.w3.org/2000/svg" viewBox="0 0 104.32 62.72"><defs><style>.cls-1{fill:#f27c75;}</style></defs><g id="Layer_2" data-name="Layer 2"><g id="Layer_1-2" data-name="Layer 1"><path class="cls-1" d="M11.88,55.12a12.39,12.39,0,0,0,.22-2.21,1.37,1.37,0,0,0-.53-1.17,3.21,3.21,0,0,0-1.77-.36H8.74a4,4,0,0,0-1,.11A1,1,0,0,0,7.1,52,4,4,0,0,0,6.68,53L4,63A2.81,2.81,0,0,0,3.88,64a.6.6,0,0,0,.47.48,5.84,5.84,0,0,0,1.23.16l-.1.4c-.35,0-.79,0-1.32,0H1.09c-.45,0-.81,0-1.09,0l.1-.4a4.76,4.76,0,0,0,1.06-.16A1,1,0,0,0,1.75,64,4.63,4.63,0,0,0,2.16,63L4.82,53c.2-.73.22-1.2.07-1.39s-.56-.3-1.23-.33l.1-.4,2.1,0L8,51h3.58c.74,0,1.4,0,2,0-.17.51-.34,1-.49,1.47s-.26.84-.33,1.09-.17.62-.23.9-.11.53-.15.74ZM4.66,58.36l.1-.4h4l-.1.4ZM6.82,58a1.87,1.87,0,0,0,1.36-.46,3.2,3.2,0,0,0,.74-1.08l.46-1.1h.46c-.25.76-.43,1.34-.53,1.74s-.2.77-.29,1.1-.17.7-.26,1.1-.22,1-.38,1.74H7.92c.07-.43.12-.84.15-1.25a1.57,1.57,0,0,0-.21-1q-.25-.39-1.14-.39Z" transform="translate(0 -2.64)"/><path class="cls-1" d="M23.36,54.52a9.52,9.52,0,0,0,.16-1.87,1.17,1.17,0,0,0-.49-1,2.94,2.94,0,0,0-1.51-.29H20.06a4,4,0,0,0-1,.11,1,1,0,0,0-.59.46A4,4,0,0,0,18,53L15.34,63c-.2.73-.22,1.19-.07,1.38s.57.28,1.25.28H18a4.8,4.8,0,0,0,2-.34,3,3,0,0,0,1.24-1.11,10.6,10.6,0,0,0,1-2.09h.46c-.07.17-.14.39-.22.64s-.15.52-.22.8-.15.62-.26,1.09-.2,1-.28,1.47c-.68,0-1.45,0-2.3,0h-6c-.74,0-1.44,0-2.09,0l.1-.4a4.76,4.76,0,0,0,1.06-.16,1,1,0,0,0,.59-.48A4.63,4.63,0,0,0,13.48,63L16.14,53c.2-.73.22-1.2.07-1.39s-.56-.3-1.23-.33l.1-.4,2.1,0,2.11,0h3.58c.74,0,1.4,0,2,0-.17.47-.33.92-.46,1.36l-.3,1c-.07.24-.12.47-.17.69s-.08.4-.11.55ZM16,58.16l.12-.4H19.6l-.12.4Zm2-.4a1.83,1.83,0,0,0,1.35-.46,3.52,3.52,0,0,0,.74-1.08c.18-.41.34-.78.47-1.1h.46c-.25.76-.43,1.34-.53,1.74s-.2.77-.29,1.1l-.17.69c-.06.25-.13.54-.2.88s-.16.76-.27,1.27h-.46c.07-.43.11-.84.14-1.25a1.57,1.57,0,0,0-.22-1q-.25-.39-1.14-.39Z" transform="translate(0 -2.64)"/><path class="cls-1" d="M32.46,50.94a4.68,4.68,0,0,1,2.83.7,2.22,2.22,0,0,1,.93,1.86,3,3,0,0,1-.6,1.83,5.28,5.28,0,0,1-1.54,1.38,8.84,8.84,0,0,1-2,.89,4,4,0,0,1,2.56,1.19,3.18,3.18,0,0,1,.72,2.07,3.38,3.38,0,0,1-.52,1.87A4.33,4.33,0,0,1,33.5,64a6.56,6.56,0,0,1-1.92.78,9.15,9.15,0,0,1-2.14.26l-1.58,0Q27,65,26,65H24.64c-.44,0-.8,0-1.08,0l.08-.4a4.76,4.76,0,0,0,1.06-.16,1.08,1.08,0,0,0,.6-.48A3.91,3.91,0,0,0,25.7,63L28.34,53a5.83,5.83,0,0,0,.16-1,.6.6,0,0,0-.27-.56,2.07,2.07,0,0,0-1.07-.19l.1-.4.66,0,.83,0h.89L31,51Zm-3.8,7,.08-.34H30.3A3.87,3.87,0,0,0,32.4,57a3.78,3.78,0,0,0,1.36-1.45,4,4,0,0,0,.48-1.92,2.56,2.56,0,0,0-.51-1.75,2.11,2.11,0,0,0-1.65-.57,2.13,2.13,0,0,0-1.24.27,2.07,2.07,0,0,0-.58,1.15L27.56,63a4.4,4.4,0,0,0-.17,1,.54.54,0,0,0,.25.53,1.88,1.88,0,0,0,.94.16,6.86,6.86,0,0,0,2.81-.48,3.11,3.11,0,0,0,1.53-1.39,4.66,4.66,0,0,0,.48-2.19,2.72,2.72,0,0,0-.68-2,2.91,2.91,0,0,0-2.18-.7Z" transform="translate(0 -2.64)"/><path class="cls-1" d="M41.12,58.36l.1-.4h.9a6.63,6.63,0,0,0,3-.58,3.56,3.56,0,0,0,1.6-1.56,4.88,4.88,0,0,0,.48-2.18,2.34,2.34,0,0,0-.59-1.75,2.75,2.75,0,0,0-1.95-.57,1.77,1.77,0,0,0-1.24.35A3.05,3.05,0,0,0,42.82,53L40.18,63A4.77,4.77,0,0,0,40,64a.52.52,0,0,0,.29.54,2.54,2.54,0,0,0,1.07.19l-.08.4c-.31,0-.68,0-1.12,0H37.32c-.47,0-.84,0-1.12,0l.08-.4a4.86,4.86,0,0,0,1.06-.16,1.08,1.08,0,0,0,.6-.48,4.26,4.26,0,0,0,.4-1.08L41,53a3.89,3.89,0,0,0,.17-1,.59.59,0,0,0-.31-.54,2.33,2.33,0,0,0-1-.17l.1-.4.68,0,.87,0h.91l1.45,0,1.47,0a4.87,4.87,0,0,1,3,.77,2.48,2.48,0,0,1,1,2,3.44,3.44,0,0,1-.93,2.37,6.26,6.26,0,0,1-2.58,1.63,11.2,11.2,0,0,1-3.83.6Zm.2-.34,1.72.09,1,.09.71.1a4.12,4.12,0,0,1,1.31.42,1.69,1.69,0,0,1,.74.8,3,3,0,0,1,.15,1.42l-.16,2a4.17,4.17,0,0,0,.07,1.13q.1.52.57.51a.8.8,0,0,0,.63-.45,6.72,6.72,0,0,0,.55-1.23l.1-.28h.46l-.08.26a4.73,4.73,0,0,1-.89,1.83,1.89,1.89,0,0,1-1.49.61,1.65,1.65,0,0,1-1.42-.59,1.87,1.87,0,0,1-.38-1.33l.16-2.24a4.18,4.18,0,0,0-.15-1.68,1.57,1.57,0,0,0-1.06-.89,9,9,0,0,0-2.57-.27Z" transform="translate(0 -2.64)"/><path class="cls-1" d="M62.76,53.24a2.77,2.77,0,0,0,.12-1.14.81.81,0,0,0-.43-.58,2.46,2.46,0,0,0-1-.2l.1-.4.93,0,1.09,0,1,0,.85,0-.1.4a2.81,2.81,0,0,0-1.08.2,1.31,1.31,0,0,0-.63.58,4.71,4.71,0,0,0-.41,1.14l-1.56,6a11,11,0,0,1-2,4.24,5.41,5.41,0,0,1-4.1,1.86,5.69,5.69,0,0,1-1.77-.25,2.8,2.8,0,0,1-2-2.81,12.92,12.92,0,0,1,.5-3L54,53c.18-.73.2-1.2,0-1.39s-.56-.3-1.23-.33l.12-.4L54,51l1.48,0,1.36,0,1.14,0-.12.4a3.47,3.47,0,0,0-1.06.15,1.08,1.08,0,0,0-.59.48A4.39,4.39,0,0,0,55.8,53L54,59.66a12.49,12.49,0,0,0-.43,2.5A2.65,2.65,0,0,0,54.05,64a2.28,2.28,0,0,0,1.91.68,4.38,4.38,0,0,0,2.5-.67,5.19,5.19,0,0,0,1.64-1.85,11.32,11.32,0,0,0,1-2.66Z" transform="translate(0 -2.64)"/><path class="cls-1" d="M64.94,61.84a5.47,5.47,0,0,0-.89,1.66.78.78,0,0,0,.23.89,2.15,2.15,0,0,0,1.2.29l-.1.4c-.38,0-.76,0-1.16,0h-2c-.23,0-.45,0-.66,0l.1-.4a2.59,2.59,0,0,0,.89-.49,6.3,6.3,0,0,0,1.11-1.25l8.62-12.12h.3l.8,12.58a1.43,1.43,0,0,0,.37,1,1,1,0,0,0,.61.29l-.08.4c-.27,0-.6,0-1,0H70.78c-.43,0-.78,0-1,0l.08-.4a2.45,2.45,0,0,0,1.36-.35c.27-.21.38-.65.36-1.33L71,53.12l.14,0Zm1.6-2.52h5.84l-.16.4h-6Z" transform="translate(0 -2.64)"/><path class="cls-1" d="M80.18,58.36l.1-.4h.9a6.63,6.63,0,0,0,3-.58,3.56,3.56,0,0,0,1.6-1.56,4.88,4.88,0,0,0,.48-2.18,2.34,2.34,0,0,0-.59-1.75,2.75,2.75,0,0,0-1.95-.57,1.77,1.77,0,0,0-1.24.35A3.05,3.05,0,0,0,81.88,53L79.24,63a4.77,4.77,0,0,0-.18,1,.52.52,0,0,0,.29.54,2.51,2.51,0,0,0,1.07.19l-.08.4c-.31,0-.68,0-1.12,0H76.38c-.47,0-.84,0-1.12,0l.08-.4a4.86,4.86,0,0,0,1.06-.16A1.08,1.08,0,0,0,77,64,4.26,4.26,0,0,0,77.4,63L80,53a3.89,3.89,0,0,0,.17-1,.59.59,0,0,0-.31-.54,2.33,2.33,0,0,0-1-.17l.1-.4.68,0,.87,0h.91l1.45,0,1.47,0a4.83,4.83,0,0,1,3,.77,2.48,2.48,0,0,1,1,2,3.44,3.44,0,0,1-.93,2.37,6.26,6.26,0,0,1-2.58,1.63,11.2,11.2,0,0,1-3.83.6Zm.2-.34,1.72.09,1,.09.71.1a4.12,4.12,0,0,1,1.31.42,1.64,1.64,0,0,1,.74.8A3,3,0,0,1,86,60.94l-.16,2a3.8,3.8,0,0,0,.07,1.13q.11.52.57.51a.8.8,0,0,0,.63-.45,6.72,6.72,0,0,0,.55-1.23l.1-.28h.46l-.08.26a4.59,4.59,0,0,1-.89,1.83,1.91,1.91,0,0,1-1.49.61,1.66,1.66,0,0,1-1.42-.59A1.87,1.87,0,0,1,84,63.44l.16-2.24A4.18,4.18,0,0,0,84,59.52a1.57,1.57,0,0,0-1.06-.89,9,9,0,0,0-2.57-.27Z" transform="translate(0 -2.64)"/><path class="cls-1" d="M103,51.06a1.6,1.6,0,0,0-.59.14,2.62,2.62,0,0,0-.51.3A9.4,9.4,0,0,0,100.34,53a16.15,16.15,0,0,0-1.78,2.65,27.63,27.63,0,0,0-1.8,4l-1.18.1c0-.61-.12-1.28-.21-2s-.19-1.43-.31-2.14a15.62,15.62,0,0,0-.45-2A5.26,5.26,0,0,0,94,52.27a1.07,1.07,0,0,0-.87-.53.8.8,0,0,0-.57.21,1.59,1.59,0,0,0-.39.73l-.56,1.64h-.44l.66-1.94a3.61,3.61,0,0,1,.7-1.31,1.61,1.61,0,0,1,1.26-.43,2,2,0,0,1,1.74.89,7,7,0,0,1,1,2.52,36.19,36.19,0,0,1,.6,3.83,19.05,19.05,0,0,1,1.73-3.41,14.91,14.91,0,0,1,2-2.53,6.63,6.63,0,0,1,1.09-.88,2.26,2.26,0,0,1,1.27-.42,1,1,0,0,1,.92.37,1.29,1.29,0,0,1,.2.81,1.77,1.77,0,0,1-.31.84,1,1,0,0,1-.87.44.65.65,0,0,1-.62-.27,1,1,0,0,1-.14-.59,1.41,1.41,0,0,1,.2-.63,2.13,2.13,0,0,1,.44-.55H103ZM96.12,63c-.17.73-.19,1.2-.05,1.39s.55.3,1.23.33l-.1.4-.7,0-.86,0h-2.4c-.47,0-.85,0-1.14,0l.1-.4a4.86,4.86,0,0,0,1.06-.16,1.08,1.08,0,0,0,.6-.48,4.26,4.26,0,0,0,.4-1.08l1.38-5.48.7,1.26.66-.38.68-1.6Z" transform="translate(0 -2.64)"/><path class="cls-1" d="M11.88,31.12a12.39,12.39,0,0,0,.22-2.21,1.37,1.37,0,0,0-.53-1.17,3.21,3.21,0,0,0-1.77-.36H8.74a4,4,0,0,0-1,.11A1,1,0,0,0,7.1,28,4,4,0,0,0,6.68,29L4,39A2.81,2.81,0,0,0,3.88,40a.6.6,0,0,0,.47.48,5.84,5.84,0,0,0,1.23.16l-.1.4c-.35,0-.79,0-1.32,0H1.09c-.45,0-.81,0-1.09,0l.1-.4a4.76,4.76,0,0,0,1.06-.16A1,1,0,0,0,1.75,40,4.63,4.63,0,0,0,2.16,39L4.82,29c.2-.73.22-1.2.07-1.39s-.56-.3-1.23-.33l.1-.4,2.1,0L8,27h3.58c.74,0,1.4,0,2,0-.17.51-.34,1-.49,1.47s-.26.84-.33,1.09-.17.62-.23.9-.11.53-.15.74ZM4.66,34.36l.1-.4h4l-.1.4ZM6.82,34a1.87,1.87,0,0,0,1.36-.46,3.2,3.2,0,0,0,.74-1.08l.46-1.1h.46c-.25.76-.43,1.34-.53,1.74s-.2.77-.29,1.1-.17.7-.26,1.1-.22,1-.38,1.74H7.92c.07-.43.12-.84.15-1.25a1.57,1.57,0,0,0-.21-1q-.25-.39-1.14-.39Z" transform="translate(0 -2.64)"/><path class="cls-1" d="M23.36,30.52a9.52,9.52,0,0,0,.16-1.87,1.17,1.17,0,0,0-.49-1,2.94,2.94,0,0,0-1.51-.29H20.06a4,4,0,0,0-1,.11,1,1,0,0,0-.59.46A4,4,0,0,0,18,29L15.34,39c-.2.73-.22,1.19-.07,1.38s.57.28,1.25.28H18a4.8,4.8,0,0,0,2-.34,3,3,0,0,0,1.24-1.11,10.6,10.6,0,0,0,1-2.09h.46c-.07.17-.14.39-.22.64s-.15.52-.22.8-.15.62-.26,1.09-.2,1-.28,1.47c-.68,0-1.45,0-2.3,0h-6c-.74,0-1.44,0-2.09,0l.1-.4a4.76,4.76,0,0,0,1.06-.16,1,1,0,0,0,.59-.48A4.63,4.63,0,0,0,13.48,39L16.14,29c.2-.73.22-1.2.07-1.39s-.56-.3-1.23-.33l.1-.4,2.1,0,2.11,0h3.58c.74,0,1.4,0,2,0-.17.47-.33.92-.46,1.36l-.3,1c-.07.24-.12.47-.17.69s-.08.4-.11.55ZM16,34.16l.12-.4H19.6l-.12.4Zm2-.4a1.83,1.83,0,0,0,1.35-.46,3.52,3.52,0,0,0,.74-1.08c.18-.41.34-.78.47-1.1h.46c-.25.76-.43,1.34-.53,1.74s-.2.77-.29,1.1l-.17.69c-.06.25-.13.54-.2.88s-.16.76-.27,1.27h-.46c.07-.43.11-.84.14-1.25a1.57,1.57,0,0,0-.22-1q-.25-.39-1.14-.39Z" transform="translate(0 -2.64)"/><path class="cls-1" d="M32.46,26.94a4.68,4.68,0,0,1,2.83.7,2.22,2.22,0,0,1,.93,1.86,3,3,0,0,1-.6,1.83,5.28,5.28,0,0,1-1.54,1.38,8.84,8.84,0,0,1-2,.89,4,4,0,0,1,2.56,1.19,3.18,3.18,0,0,1,.72,2.07,3.38,3.38,0,0,1-.52,1.87A4.33,4.33,0,0,1,33.5,40a6.56,6.56,0,0,1-1.92.78,9.15,9.15,0,0,1-2.14.26l-1.58,0Q27,41,26,41H24.64c-.44,0-.8,0-1.08,0l.08-.4a4.76,4.76,0,0,0,1.06-.16,1.08,1.08,0,0,0,.6-.48A3.91,3.91,0,0,0,25.7,39L28.34,29a5.83,5.83,0,0,0,.16-1,.6.6,0,0,0-.27-.56,2.07,2.07,0,0,0-1.07-.19l.1-.4.66,0,.83,0h.89L31,27Zm-3.8,7,.08-.34H30.3A3.87,3.87,0,0,0,32.4,33a3.78,3.78,0,0,0,1.36-1.45,4,4,0,0,0,.48-1.92,2.56,2.56,0,0,0-.51-1.75,2.11,2.11,0,0,0-1.65-.57,2.13,2.13,0,0,0-1.24.27,2.07,2.07,0,0,0-.58,1.15L27.56,39a4.4,4.4,0,0,0-.17,1,.54.54,0,0,0,.25.53,1.88,1.88,0,0,0,.94.16,6.86,6.86,0,0,0,2.81-.48,3.11,3.11,0,0,0,1.53-1.39,4.66,4.66,0,0,0,.48-2.19,2.72,2.72,0,0,0-.68-2,2.91,2.91,0,0,0-2.18-.7Z" transform="translate(0 -2.64)"/><path class="cls-1" d="M41.12,34.36l.1-.4h.9a6.63,6.63,0,0,0,3-.58,3.56,3.56,0,0,0,1.6-1.56,4.88,4.88,0,0,0,.48-2.18,2.34,2.34,0,0,0-.59-1.75,2.75,2.75,0,0,0-1.95-.57,1.77,1.77,0,0,0-1.24.35A3.05,3.05,0,0,0,42.82,29L40.18,39A4.77,4.77,0,0,0,40,40a.52.52,0,0,0,.29.54,2.54,2.54,0,0,0,1.07.19l-.08.4c-.31,0-.68,0-1.12,0H37.32c-.47,0-.84,0-1.12,0l.08-.4a4.86,4.86,0,0,0,1.06-.16,1.08,1.08,0,0,0,.6-.48,4.26,4.26,0,0,0,.4-1.08L41,29a3.89,3.89,0,0,0,.17-1,.59.59,0,0,0-.31-.54,2.33,2.33,0,0,0-1-.17l.1-.4.68,0,.87,0h.91l1.45,0,1.47,0a4.87,4.87,0,0,1,3,.77,2.48,2.48,0,0,1,1,2.05,3.44,3.44,0,0,1-.93,2.37,6.26,6.26,0,0,1-2.58,1.63,11.2,11.2,0,0,1-3.83.6Zm.2-.34,1.72.09,1,.09.71.1a4.12,4.12,0,0,1,1.31.42,1.69,1.69,0,0,1,.74.8,3,3,0,0,1,.15,1.42l-.16,2a4.17,4.17,0,0,0,.07,1.13q.1.53.57.51a.8.8,0,0,0,.63-.45,6.72,6.72,0,0,0,.55-1.23l.1-.28h.46l-.08.26a4.73,4.73,0,0,1-.89,1.83,1.89,1.89,0,0,1-1.49.61,1.65,1.65,0,0,1-1.42-.59,1.87,1.87,0,0,1-.38-1.33l.16-2.24a4.18,4.18,0,0,0-.15-1.68,1.57,1.57,0,0,0-1.06-.89,9,9,0,0,0-2.57-.27Z" transform="translate(0 -2.64)"/><path class="cls-1" d="M62.76,29.24a2.77,2.77,0,0,0,.12-1.14.81.81,0,0,0-.43-.58,2.46,2.46,0,0,0-1-.2l.1-.4.93,0,1.09,0,1,0,.85,0-.1.4a2.81,2.81,0,0,0-1.08.2,1.31,1.31,0,0,0-.63.58,4.71,4.71,0,0,0-.41,1.14l-1.56,6a11,11,0,0,1-2,4.24,5.41,5.41,0,0,1-4.1,1.86,5.69,5.69,0,0,1-1.77-.25,2.8,2.8,0,0,1-2-2.81,12.92,12.92,0,0,1,.5-3L54,29c.18-.73.2-1.2,0-1.39s-.56-.3-1.23-.33l.12-.4L54,27l1.48,0,1.36,0,1.14,0-.12.4a3.47,3.47,0,0,0-1.06.15,1.08,1.08,0,0,0-.59.48A4.39,4.39,0,0,0,55.8,29L54,35.66a12.49,12.49,0,0,0-.43,2.5A2.65,2.65,0,0,0,54.05,40a2.28,2.28,0,0,0,1.91.68,4.38,4.38,0,0,0,2.5-.67,5.19,5.19,0,0,0,1.64-1.85,11.32,11.32,0,0,0,1-2.66Z" transform="translate(0 -2.64)"/><path class="cls-1" d="M64.94,37.84a5.47,5.47,0,0,0-.89,1.66.78.78,0,0,0,.23.89,2.15,2.15,0,0,0,1.2.29l-.1.4c-.38,0-.76,0-1.16,0h-2c-.23,0-.45,0-.66,0l.1-.4a2.59,2.59,0,0,0,.89-.49,6.3,6.3,0,0,0,1.11-1.25l8.62-12.12h.3l.8,12.58a1.43,1.43,0,0,0,.37,1,1,1,0,0,0,.61.29l-.08.4c-.27,0-.6,0-1,0H70.78c-.43,0-.78,0-1,0l.08-.4a2.45,2.45,0,0,0,1.36-.35c.27-.21.38-.65.36-1.33L71,29.12l.14,0Zm1.6-2.52h5.84l-.16.4h-6Z" transform="translate(0 -2.64)"/><path class="cls-1" d="M80.18,34.36l.1-.4h.9a6.63,6.63,0,0,0,3-.58,3.56,3.56,0,0,0,1.6-1.56,4.88,4.88,0,0,0,.48-2.18,2.34,2.34,0,0,0-.59-1.75,2.75,2.75,0,0,0-1.95-.57,1.77,1.77,0,0,0-1.24.35A3.05,3.05,0,0,0,81.88,29L79.24,39a4.77,4.77,0,0,0-.18,1,.52.52,0,0,0,.29.54,2.51,2.51,0,0,0,1.07.19l-.08.4c-.31,0-.68,0-1.12,0H76.38c-.47,0-.84,0-1.12,0l.08-.4a4.86,4.86,0,0,0,1.06-.16A1.08,1.08,0,0,0,77,40,4.26,4.26,0,0,0,77.4,39L80,29a3.89,3.89,0,0,0,.17-1,.59.59,0,0,0-.31-.54,2.33,2.33,0,0,0-1-.17l.1-.4.68,0,.87,0h.91l1.45,0,1.47,0a4.83,4.83,0,0,1,3,.77,2.48,2.48,0,0,1,1,2.05,3.44,3.44,0,0,1-.93,2.37,6.26,6.26,0,0,1-2.58,1.63,11.2,11.2,0,0,1-3.83.6Zm.2-.34,1.72.09,1,.09.71.1a4.12,4.12,0,0,1,1.31.42,1.64,1.64,0,0,1,.74.8A3,3,0,0,1,86,36.94l-.16,2a3.8,3.8,0,0,0,.07,1.13q.11.53.57.51a.8.8,0,0,0,.63-.45,6.72,6.72,0,0,0,.55-1.23l.1-.28h.46l-.08.26a4.59,4.59,0,0,1-.89,1.83,1.91,1.91,0,0,1-1.49.61,1.66,1.66,0,0,1-1.42-.59A1.87,1.87,0,0,1,84,39.44l.16-2.24A4.18,4.18,0,0,0,84,35.52a1.57,1.57,0,0,0-1.06-.89,9,9,0,0,0-2.57-.27Z" transform="translate(0 -2.64)"/><path class="cls-1" d="M103,27.06a1.6,1.6,0,0,0-.59.14,2.62,2.62,0,0,0-.51.3A9.4,9.4,0,0,0,100.34,29a16.15,16.15,0,0,0-1.78,2.65,27.63,27.63,0,0,0-1.8,4l-1.18.1c0-.61-.12-1.28-.21-2s-.19-1.43-.31-2.14a15.62,15.62,0,0,0-.45-1.95A5.26,5.26,0,0,0,94,28.27a1.07,1.07,0,0,0-.87-.53.8.8,0,0,0-.57.21,1.59,1.59,0,0,0-.39.73l-.56,1.64h-.44l.66-1.94a3.61,3.61,0,0,1,.7-1.31,1.61,1.61,0,0,1,1.26-.43,2,2,0,0,1,1.74.89,7,7,0,0,1,1,2.52,36.19,36.19,0,0,1,.6,3.83,19.05,19.05,0,0,1,1.73-3.41,14.91,14.91,0,0,1,2-2.53,6.63,6.63,0,0,1,1.09-.88,2.26,2.26,0,0,1,1.27-.42,1,1,0,0,1,.92.37,1.29,1.29,0,0,1,.2.81,1.77,1.77,0,0,1-.31.84,1,1,0,0,1-.87.44.65.65,0,0,1-.62-.27,1,1,0,0,1-.14-.59,1.41,1.41,0,0,1,.2-.63,2.13,2.13,0,0,1,.44-.55H103ZM96.12,39c-.17.73-.19,1.2-.05,1.39s.55.3,1.23.33l-.1.4-.7,0-.86,0h-2.4c-.47,0-.85,0-1.14,0l.1-.4a4.86,4.86,0,0,0,1.06-.16,1.08,1.08,0,0,0,.6-.48,4.26,4.26,0,0,0,.4-1.08l1.38-5.48.7,1.26.66-.38.68-1.6Z" transform="translate(0 -2.64)"/><path class="cls-1" d="M11.88,7.12a12.39,12.39,0,0,0,.22-2.21,1.37,1.37,0,0,0-.53-1.17A3.21,3.21,0,0,0,9.8,3.38H8.74a4,4,0,0,0-1,.11A1,1,0,0,0,7.1,4,4,4,0,0,0,6.68,5L4,15A2.81,2.81,0,0,0,3.88,16a.6.6,0,0,0,.47.48,5.84,5.84,0,0,0,1.23.16l-.1.4c-.35,0-.79,0-1.32,0H1.09c-.45,0-.81,0-1.09,0l.1-.4a4.76,4.76,0,0,0,1.06-.16A1,1,0,0,0,1.75,16,4.63,4.63,0,0,0,2.16,15L4.82,5c.2-.73.22-1.2.07-1.39s-.56-.3-1.23-.33l.1-.4,2.1,0L8,3h3.58c.74,0,1.4,0,2-.05-.17.51-.34,1-.49,1.47s-.26.84-.33,1.09-.17.62-.23.9-.11.53-.15.74ZM4.66,10.36l.1-.4h4l-.1.4ZM6.82,10A1.87,1.87,0,0,0,8.18,9.5a3.2,3.2,0,0,0,.74-1.08l.46-1.1h.46c-.25.76-.43,1.34-.53,1.74s-.2.77-.29,1.1-.17.7-.26,1.1-.22,1-.38,1.74H7.92c.07-.43.12-.84.15-1.25a1.57,1.57,0,0,0-.21-1q-.25-.39-1.14-.39Z" transform="translate(0 -2.64)"/><path class="cls-1" d="M23.36,6.52a9.52,9.52,0,0,0,.16-1.87,1.17,1.17,0,0,0-.49-1,2.94,2.94,0,0,0-1.51-.29H20.06a4,4,0,0,0-1,.11,1,1,0,0,0-.59.46A4,4,0,0,0,18,5L15.34,15c-.2.73-.22,1.19-.07,1.38s.57.28,1.25.28H18a4.8,4.8,0,0,0,2-.34,3,3,0,0,0,1.24-1.11,10.6,10.6,0,0,0,1-2.09h.46c-.07.17-.14.39-.22.64s-.15.52-.22.8-.15.62-.26,1.09-.2,1-.28,1.47c-.68,0-1.45,0-2.3,0h-6c-.74,0-1.44,0-2.09,0l.1-.4a4.76,4.76,0,0,0,1.06-.16,1,1,0,0,0,.59-.48A4.63,4.63,0,0,0,13.48,15L16.14,5c.2-.73.22-1.2.07-1.39s-.56-.3-1.23-.33l.1-.4,2.1,0,2.11,0h3.58c.74,0,1.4,0,2-.05-.17.47-.33.92-.46,1.36l-.3,1c-.07.24-.12.47-.17.69s-.08.4-.11.55ZM16,10.16l.12-.4H19.6l-.12.4Zm2-.4a1.83,1.83,0,0,0,1.35-.46,3.52,3.52,0,0,0,.74-1.08c.18-.41.34-.78.47-1.1h.46c-.25.76-.43,1.34-.53,1.74s-.2.77-.29,1.1l-.17.69c-.06.25-.13.54-.2.88s-.16.76-.27,1.27h-.46c.07-.43.11-.84.14-1.25a1.57,1.57,0,0,0-.22-1q-.25-.39-1.14-.39Z" transform="translate(0 -2.64)"/><path class="cls-1" d="M32.46,2.94a4.68,4.68,0,0,1,2.83.7,2.22,2.22,0,0,1,.93,1.86,3,3,0,0,1-.6,1.83,5.28,5.28,0,0,1-1.54,1.38,8.84,8.84,0,0,1-2,.89,4,4,0,0,1,2.56,1.19,3.18,3.18,0,0,1,.72,2.07,3.38,3.38,0,0,1-.52,1.87A4.33,4.33,0,0,1,33.5,16a6.56,6.56,0,0,1-1.92.78,9.15,9.15,0,0,1-2.14.26l-1.58,0Q27,17,26,17H24.64c-.44,0-.8,0-1.08,0l.08-.4a4.76,4.76,0,0,0,1.06-.16,1.08,1.08,0,0,0,.6-.48A3.91,3.91,0,0,0,25.7,15L28.34,5a5.83,5.83,0,0,0,.16-1,.6.6,0,0,0-.27-.56,2.07,2.07,0,0,0-1.07-.19l.1-.4.66,0,.83,0h.89L31,3Zm-3.8,7,.08-.34H30.3A3.87,3.87,0,0,0,32.4,9a3.78,3.78,0,0,0,1.36-1.45,4,4,0,0,0,.48-1.92,2.56,2.56,0,0,0-.51-1.75,2.11,2.11,0,0,0-1.65-.57,2.13,2.13,0,0,0-1.24.27,2.07,2.07,0,0,0-.58,1.15L27.56,15a4.4,4.4,0,0,0-.17,1,.54.54,0,0,0,.25.53,1.88,1.88,0,0,0,.94.16,6.86,6.86,0,0,0,2.81-.48,3.11,3.11,0,0,0,1.53-1.39,4.66,4.66,0,0,0,.48-2.19,2.72,2.72,0,0,0-.68-2,2.91,2.91,0,0,0-2.18-.7Z" transform="translate(0 -2.64)"/><path class="cls-1" d="M41.12,10.36l.1-.4h.9a6.63,6.63,0,0,0,3-.58,3.56,3.56,0,0,0,1.6-1.56,4.88,4.88,0,0,0,.48-2.18,2.34,2.34,0,0,0-.59-1.75,2.75,2.75,0,0,0-1.95-.57,1.77,1.77,0,0,0-1.24.35A3.05,3.05,0,0,0,42.82,5L40.18,15A4.77,4.77,0,0,0,40,16a.52.52,0,0,0,.29.54,2.54,2.54,0,0,0,1.07.19l-.08.4c-.31,0-.68,0-1.12,0H37.32c-.47,0-.84,0-1.12,0l.08-.4a4.86,4.86,0,0,0,1.06-.16,1.08,1.08,0,0,0,.6-.48,4.26,4.26,0,0,0,.4-1.08L41,5a3.89,3.89,0,0,0,.17-1,.59.59,0,0,0-.31-.54,2.33,2.33,0,0,0-1-.17l.1-.4.68,0,.87,0h.91l1.45,0,1.47,0a4.87,4.87,0,0,1,3,.77,2.48,2.48,0,0,1,1,2.05,3.44,3.44,0,0,1-.93,2.37,6.26,6.26,0,0,1-2.58,1.63,11.2,11.2,0,0,1-3.83.6Zm.2-.34,1.72.09,1,.09.71.1a4.12,4.12,0,0,1,1.31.42,1.69,1.69,0,0,1,.74.8,3,3,0,0,1,.15,1.42l-.16,2a4.17,4.17,0,0,0,.07,1.13q.1.53.57.51a.8.8,0,0,0,.63-.45,6.72,6.72,0,0,0,.55-1.23l.1-.28h.46l-.08.26a4.73,4.73,0,0,1-.89,1.83,1.89,1.89,0,0,1-1.49.61,1.65,1.65,0,0,1-1.42-.59,1.87,1.87,0,0,1-.38-1.33l.16-2.24a4.18,4.18,0,0,0-.15-1.68,1.57,1.57,0,0,0-1.06-.89,9,9,0,0,0-2.57-.27Z" transform="translate(0 -2.64)"/><path class="cls-1" d="M62.76,5.24a2.77,2.77,0,0,0,.12-1.14.81.81,0,0,0-.43-.58,2.46,2.46,0,0,0-1-.2l.1-.4.93,0,1.09,0,1,0,.85,0-.1.4a2.81,2.81,0,0,0-1.08.2,1.31,1.31,0,0,0-.63.58,4.71,4.71,0,0,0-.41,1.14l-1.56,6a11,11,0,0,1-2,4.24,5.41,5.41,0,0,1-4.1,1.86,5.69,5.69,0,0,1-1.77-.25,2.8,2.8,0,0,1-2-2.81,12.92,12.92,0,0,1,.5-3L54,5c.18-.73.2-1.2,0-1.39s-.56-.3-1.23-.33l.12-.4L54,3l1.48,0,1.36,0,1.14,0-.12.4a3.47,3.47,0,0,0-1.06.15,1.08,1.08,0,0,0-.59.48A4.39,4.39,0,0,0,55.8,5L54,11.66a12.49,12.49,0,0,0-.43,2.5A2.65,2.65,0,0,0,54.05,16a2.28,2.28,0,0,0,1.91.68,4.38,4.38,0,0,0,2.5-.67,5.19,5.19,0,0,0,1.64-1.85,11.32,11.32,0,0,0,1-2.66Z" transform="translate(0 -2.64)"/><path class="cls-1" d="M64.94,13.84a5.47,5.47,0,0,0-.89,1.66.78.78,0,0,0,.23.89,2.15,2.15,0,0,0,1.2.29l-.1.4c-.38,0-.76,0-1.16,0h-2c-.23,0-.45,0-.66,0l.1-.4a2.59,2.59,0,0,0,.89-.49,6.3,6.3,0,0,0,1.11-1.25L72.32,2.82h.3l.8,12.58a1.43,1.43,0,0,0,.37,1,1,1,0,0,0,.61.29l-.08.4c-.27,0-.6,0-1,0H70.78c-.43,0-.78,0-1,0l.08-.4a2.45,2.45,0,0,0,1.36-.35c.27-.21.38-.65.36-1.33L71,5.12l.14,0Zm1.6-2.52h5.84l-.16.4h-6Z" transform="translate(0 -2.64)"/><path class="cls-1" d="M80.18,10.36l.1-.4h.9a6.63,6.63,0,0,0,3-.58,3.56,3.56,0,0,0,1.6-1.56,4.88,4.88,0,0,0,.48-2.18,2.34,2.34,0,0,0-.59-1.75,2.75,2.75,0,0,0-1.95-.57,1.77,1.77,0,0,0-1.24.35A3.05,3.05,0,0,0,81.88,5L79.24,15a4.77,4.77,0,0,0-.18,1,.52.52,0,0,0,.29.54,2.51,2.51,0,0,0,1.07.19l-.08.4c-.31,0-.68,0-1.12,0H76.38c-.47,0-.84,0-1.12,0l.08-.4a4.86,4.86,0,0,0,1.06-.16A1.08,1.08,0,0,0,77,16,4.26,4.26,0,0,0,77.4,15L80,5a3.89,3.89,0,0,0,.17-1,.59.59,0,0,0-.31-.54,2.33,2.33,0,0,0-1-.17l.1-.4.68,0,.87,0h.91l1.45,0,1.47,0a4.83,4.83,0,0,1,3,.77,2.48,2.48,0,0,1,1,2.05,3.44,3.44,0,0,1-.93,2.37,6.26,6.26,0,0,1-2.58,1.63,11.2,11.2,0,0,1-3.83.6Zm.2-.34,1.72.09,1,.09.71.1a4.12,4.12,0,0,1,1.31.42,1.64,1.64,0,0,1,.74.8A3,3,0,0,1,86,12.94l-.16,2a3.8,3.8,0,0,0,.07,1.13q.11.53.57.51a.8.8,0,0,0,.63-.45,6.72,6.72,0,0,0,.55-1.23l.1-.28h.46l-.08.26a4.59,4.59,0,0,1-.89,1.83,1.91,1.91,0,0,1-1.49.61,1.66,1.66,0,0,1-1.42-.59A1.87,1.87,0,0,1,84,15.44l.16-2.24A4.18,4.18,0,0,0,84,11.52a1.57,1.57,0,0,0-1.06-.89,9,9,0,0,0-2.57-.27Z" transform="translate(0 -2.64)"/><path class="cls-1" d="M103,3.06a1.6,1.6,0,0,0-.59.14,2.62,2.62,0,0,0-.51.3A9.4,9.4,0,0,0,100.34,5a16.15,16.15,0,0,0-1.78,2.65,27.63,27.63,0,0,0-1.8,4l-1.18.1c0-.61-.12-1.28-.21-2s-.19-1.43-.31-2.14a15.62,15.62,0,0,0-.45-1.95A5.26,5.26,0,0,0,94,4.27a1.07,1.07,0,0,0-.87-.53.8.8,0,0,0-.57.21,1.59,1.59,0,0,0-.39.73l-.56,1.64h-.44l.66-1.94a3.61,3.61,0,0,1,.7-1.31,1.61,1.61,0,0,1,1.26-.43,2,2,0,0,1,1.74.89,7,7,0,0,1,1,2.52,36.19,36.19,0,0,1,.6,3.83,19.05,19.05,0,0,1,1.73-3.41,14.91,14.91,0,0,1,2-2.53,6.63,6.63,0,0,1,1.09-.88,2.26,2.26,0,0,1,1.27-.42,1,1,0,0,1,.92.37,1.29,1.29,0,0,1,.2.81,1.77,1.77,0,0,1-.31.84,1,1,0,0,1-.87.44.65.65,0,0,1-.62-.27,1,1,0,0,1-.14-.59,1.41,1.41,0,0,1,.2-.63,2.13,2.13,0,0,1,.44-.55H103ZM96.12,15c-.17.73-.19,1.2-.05,1.39s.55.3,1.23.33l-.1.4-.7,0-.86,0h-2.4c-.47,0-.85,0-1.14,0l.1-.4a4.86,4.86,0,0,0,1.06-.16,1.08,1.08,0,0,0,.6-.48,4.26,4.26,0,0,0,.4-1.08l1.38-5.48.7,1.26.66-.38.68-1.6Z" transform="translate(0 -2.64)"/></g></g></svg>