<svg xmlns="http://www.w3.org/2000/svg" viewBox="0 0 56.9 62.54"><defs><style>.cls-1{fill:#c0834c;}</style></defs><g id="Layer_2" data-name="Layer 2"><g id="Layer_1-2" data-name="Layer 1"><path class="cls-1" d="M3.34,61.84a5.47,5.47,0,0,0-.89,1.66.78.78,0,0,0,.23.89,2.15,2.15,0,0,0,1.2.29l-.1.4c-.37,0-.76,0-1.16,0h-2c-.23,0-.45,0-.66,0l.1-.4A2.5,2.5,0,0,0,1,64.19,6.3,6.3,0,0,0,2.1,62.94l8.62-12.12H11l.8,12.58a1.43,1.43,0,0,0,.37,1,1,1,0,0,0,.61.29l-.08.4c-.27,0-.6,0-1,0H9.18c-.43,0-.77,0-1,0l.08-.4a2.45,2.45,0,0,0,1.36-.35c.27-.21.39-.65.36-1.33L9.4,53.12l.14,0Zm1.6-2.52h5.84l-.16.4h-6Z" transform="translate(0 -2.82)"/><path class="cls-1" d="M18.38,59.4l.1-.4h.9a6.78,6.78,0,0,0,2.5-.41,4,4,0,0,0,1.64-1.15,4.67,4.67,0,0,0,.9-1.71,7.38,7.38,0,0,0,.28-2.09,2.34,2.34,0,0,0-.59-1.75,2.74,2.74,0,0,0-1.95-.57,1.77,1.77,0,0,0-1.24.35A3.16,3.16,0,0,0,20.28,53L17.64,63a4.77,4.77,0,0,0-.18,1,.55.55,0,0,0,.27.54,2.51,2.51,0,0,0,1.09.19l-.08.4c-.31,0-.68,0-1.12,0H14.78c-.47,0-.84,0-1.12,0l.08-.4a4.76,4.76,0,0,0,1.06-.16,1.08,1.08,0,0,0,.6-.48A3.91,3.91,0,0,0,15.8,63L18.44,53a3.5,3.5,0,0,0,.17-1,.59.59,0,0,0-.31-.54,2.33,2.33,0,0,0-1-.17l.1-.4,1.1,0,1.36,0,1.45,0,1.47,0a4.57,4.57,0,0,1,3,.83,2.73,2.73,0,0,1,1,2.19,4.46,4.46,0,0,1-.95,2.79,6.32,6.32,0,0,1-2.65,1.94,10.22,10.22,0,0,1-3.94.71Z" transform="translate(0 -2.82)"/><path class="cls-1" d="M30.36,58.36l.1-.4h.9a6.63,6.63,0,0,0,3-.58A3.51,3.51,0,0,0,36,55.82a4.88,4.88,0,0,0,.48-2.18,2.34,2.34,0,0,0-.59-1.75,2.74,2.74,0,0,0-2-.57,1.77,1.77,0,0,0-1.24.35A3.16,3.16,0,0,0,32.06,53L29.42,63a4.77,4.77,0,0,0-.18,1,.53.53,0,0,0,.29.54,2.54,2.54,0,0,0,1.07.19l-.08.4c-.31,0-.68,0-1.12,0H26.56c-.47,0-.84,0-1.12,0l.08-.4a4.76,4.76,0,0,0,1.06-.16,1.08,1.08,0,0,0,.6-.48,3.91,3.91,0,0,0,.4-1.08L30.22,53a3.5,3.5,0,0,0,.17-1,.59.59,0,0,0-.31-.54,2.33,2.33,0,0,0-1-.17l.1-.4.68,0,.87,0h.91l1.45,0,1.47,0a4.83,4.83,0,0,1,3,.77,2.48,2.48,0,0,1,1,2,3.44,3.44,0,0,1-.93,2.37A6.26,6.26,0,0,1,35,57.76a11.2,11.2,0,0,1-3.83.6Zm.2-.34,1.72.09,1,.09.71.1a4.12,4.12,0,0,1,1.31.42,1.64,1.64,0,0,1,.74.8,3,3,0,0,1,.15,1.42L36,63a4.17,4.17,0,0,0,.07,1.13q.1.52.57.51a.8.8,0,0,0,.63-.45,6.72,6.72,0,0,0,.55-1.23l.1-.28h.46l-.08.26a4.59,4.59,0,0,1-.89,1.83,1.89,1.89,0,0,1-1.49.61,1.66,1.66,0,0,1-1.42-.59,1.91,1.91,0,0,1-.38-1.33l.16-2.24a4.18,4.18,0,0,0-.15-1.68,1.55,1.55,0,0,0-1.06-.89,9,9,0,0,0-2.57-.27Z" transform="translate(0 -2.82)"/><path class="cls-1" d="M42.7,63c-.19.73-.21,1.2-.06,1.39s.56.3,1.24.33l-.08.4c-.31,0-.69,0-1.15,0H39.82c-.44,0-.81,0-1.1,0l.1-.4a4.55,4.55,0,0,0,1-.16,1.06,1.06,0,0,0,.59-.48,3.91,3.91,0,0,0,.4-1.08L43.48,53c.19-.73.2-1.2.05-1.39s-.56-.3-1.23-.33l.1-.4,1.08,0,1.46,0,1.39,0,1.17,0-.1.4a3.52,3.52,0,0,0-1.06.15,1.12,1.12,0,0,0-.59.48A4.39,4.39,0,0,0,45.34,53Z" transform="translate(0 -2.82)"/><path class="cls-1" d="M56.9,60.88c-.08.21-.16.46-.24.74l-.26.9c-.07.25-.15.62-.26,1.09s-.2,1-.28,1.47c-.68,0-1.45,0-2.3,0h-6c-.74,0-1.44,0-2.09,0l.1-.4a4.76,4.76,0,0,0,1.06-.16,1,1,0,0,0,.59-.48A4.63,4.63,0,0,0,47.66,63L50.32,53c.2-.73.22-1.2.07-1.39s-.56-.3-1.23-.33l.1-.4,1.1,0,1.46,0,1.39,0,1.15,0-.1.4a3.52,3.52,0,0,0-1.06.15,1.18,1.18,0,0,0-.6.48A4,4,0,0,0,52.18,53L49.52,63c-.2.73-.22,1.19-.07,1.38s.57.28,1.25.28h1.46a4.7,4.7,0,0,0,2-.36,3,3,0,0,0,1.26-1.18,11.85,11.85,0,0,0,1-2.2Z" transform="translate(0 -2.82)"/><path class="cls-1" d="M3.34,37.84a5.47,5.47,0,0,0-.89,1.66.78.78,0,0,0,.23.89,2.15,2.15,0,0,0,1.2.29l-.1.4c-.37,0-.76,0-1.16,0h-2c-.23,0-.45,0-.66,0l.1-.4A2.5,2.5,0,0,0,1,40.19,6.3,6.3,0,0,0,2.1,38.94l8.62-12.12H11l.8,12.58a1.43,1.43,0,0,0,.37,1,1,1,0,0,0,.61.29l-.08.4c-.27,0-.6,0-1,0H9.18c-.43,0-.77,0-1,0l.08-.4a2.45,2.45,0,0,0,1.36-.35c.27-.21.39-.65.36-1.33L9.4,29.12l.14,0Zm1.6-2.52h5.84l-.16.4h-6Z" transform="translate(0 -2.82)"/><path class="cls-1" d="M18.38,35.4l.1-.4h.9a6.78,6.78,0,0,0,2.5-.41,4,4,0,0,0,1.64-1.15,4.67,4.67,0,0,0,.9-1.71,7.38,7.38,0,0,0,.28-2.09,2.34,2.34,0,0,0-.59-1.75,2.74,2.74,0,0,0-1.95-.57,1.77,1.77,0,0,0-1.24.35A3.16,3.16,0,0,0,20.28,29L17.64,39a4.77,4.77,0,0,0-.18,1,.55.55,0,0,0,.27.54,2.51,2.51,0,0,0,1.09.19l-.08.4c-.31,0-.68,0-1.12,0H14.78c-.47,0-.84,0-1.12,0l.08-.4a4.76,4.76,0,0,0,1.06-.16,1.08,1.08,0,0,0,.6-.48A3.91,3.91,0,0,0,15.8,39L18.44,29a3.5,3.5,0,0,0,.17-1,.59.59,0,0,0-.31-.54,2.33,2.33,0,0,0-1-.17l.1-.4,1.1,0,1.36,0,1.45,0,1.47,0a4.57,4.57,0,0,1,3,.83,2.73,2.73,0,0,1,1,2.19,4.46,4.46,0,0,1-.95,2.79,6.32,6.32,0,0,1-2.65,1.94,10.22,10.22,0,0,1-3.94.71Z" transform="translate(0 -2.82)"/><path class="cls-1" d="M30.36,34.36l.1-.4h.9a6.63,6.63,0,0,0,3-.58A3.51,3.51,0,0,0,36,31.82a4.88,4.88,0,0,0,.48-2.18,2.34,2.34,0,0,0-.59-1.75,2.74,2.74,0,0,0-2-.57,1.77,1.77,0,0,0-1.24.35A3.16,3.16,0,0,0,32.06,29L29.42,39a4.77,4.77,0,0,0-.18,1,.53.53,0,0,0,.29.54,2.54,2.54,0,0,0,1.07.19l-.08.4c-.31,0-.68,0-1.12,0H26.56c-.47,0-.84,0-1.12,0l.08-.4a4.76,4.76,0,0,0,1.06-.16,1.08,1.08,0,0,0,.6-.48,3.91,3.91,0,0,0,.4-1.08L30.22,29a3.5,3.5,0,0,0,.17-1,.59.59,0,0,0-.31-.54,2.33,2.33,0,0,0-1-.17l.1-.4.68,0,.87,0h.91l1.45,0,1.47,0a4.83,4.83,0,0,1,3,.77,2.48,2.48,0,0,1,1,2.05,3.44,3.44,0,0,1-.93,2.37A6.26,6.26,0,0,1,35,33.76a11.2,11.2,0,0,1-3.83.6Zm.2-.34,1.72.09,1,.09.71.1a4.12,4.12,0,0,1,1.31.42,1.64,1.64,0,0,1,.74.8,3,3,0,0,1,.15,1.42L36,39a4.17,4.17,0,0,0,.07,1.13q.1.53.57.51a.8.8,0,0,0,.63-.45,6.72,6.72,0,0,0,.55-1.23l.1-.28h.46l-.08.26a4.59,4.59,0,0,1-.89,1.83,1.89,1.89,0,0,1-1.49.61,1.66,1.66,0,0,1-1.42-.59,1.91,1.91,0,0,1-.38-1.33l.16-2.24a4.18,4.18,0,0,0-.15-1.68,1.55,1.55,0,0,0-1.06-.89,9,9,0,0,0-2.57-.27Z" transform="translate(0 -2.82)"/><path class="cls-1" d="M42.7,39c-.19.73-.21,1.2-.06,1.39s.56.3,1.24.33l-.08.4c-.31,0-.69,0-1.15,0H39.82c-.44,0-.81,0-1.1,0l.1-.4a4.55,4.55,0,0,0,1-.16,1.06,1.06,0,0,0,.59-.48,3.91,3.91,0,0,0,.4-1.08L43.48,29c.19-.73.2-1.2.05-1.39s-.56-.3-1.23-.33l.1-.4,1.08,0,1.46,0,1.39,0,1.17,0-.1.4a3.52,3.52,0,0,0-1.06.15,1.12,1.12,0,0,0-.59.48A4.39,4.39,0,0,0,45.34,29Z" transform="translate(0 -2.82)"/><path class="cls-1" d="M56.9,36.88c-.08.21-.16.46-.24.74l-.26.9c-.07.25-.15.62-.26,1.09s-.2,1-.28,1.47c-.68,0-1.45,0-2.3,0h-6c-.74,0-1.44,0-2.09,0l.1-.4a4.76,4.76,0,0,0,1.06-.16,1,1,0,0,0,.59-.48A4.63,4.63,0,0,0,47.66,39L50.32,29c.2-.73.22-1.2.07-1.39s-.56-.3-1.23-.33l.1-.4,1.1,0,1.46,0,1.39,0,1.15,0-.1.4a3.52,3.52,0,0,0-1.06.15,1.18,1.18,0,0,0-.6.48A4,4,0,0,0,52.18,29L49.52,39c-.2.73-.22,1.19-.07,1.38s.57.28,1.25.28h1.46a4.7,4.7,0,0,0,2-.36,3,3,0,0,0,1.26-1.18,11.85,11.85,0,0,0,1-2.2Z" transform="translate(0 -2.82)"/><path class="cls-1" d="M3.34,13.84a5.47,5.47,0,0,0-.89,1.66.78.78,0,0,0,.23.89,2.15,2.15,0,0,0,1.2.29l-.1.4c-.37,0-.76,0-1.16,0h-2c-.23,0-.45,0-.66,0l.1-.4A2.5,2.5,0,0,0,1,16.19,6.3,6.3,0,0,0,2.1,14.94L10.72,2.82H11l.8,12.58a1.43,1.43,0,0,0,.37,1,1,1,0,0,0,.61.29l-.08.4c-.27,0-.6,0-1,0H9.18c-.43,0-.77,0-1,0l.08-.4a2.45,2.45,0,0,0,1.36-.35c.27-.21.39-.65.36-1.33L9.4,5.12l.14,0Zm1.6-2.52h5.84l-.16.4h-6Z" transform="translate(0 -2.82)"/><path class="cls-1" d="M18.38,11.4l.1-.4h.9a6.78,6.78,0,0,0,2.5-.41,4,4,0,0,0,1.64-1.15,4.67,4.67,0,0,0,.9-1.71,7.38,7.38,0,0,0,.28-2.09,2.34,2.34,0,0,0-.59-1.75,2.74,2.74,0,0,0-1.95-.57,1.77,1.77,0,0,0-1.24.35A3.16,3.16,0,0,0,20.28,5L17.64,15a4.77,4.77,0,0,0-.18,1,.55.55,0,0,0,.27.54,2.51,2.51,0,0,0,1.09.19l-.08.4c-.31,0-.68,0-1.12,0H14.78c-.47,0-.84,0-1.12,0l.08-.4a4.76,4.76,0,0,0,1.06-.16,1.08,1.08,0,0,0,.6-.48A3.91,3.91,0,0,0,15.8,15L18.44,5a3.5,3.5,0,0,0,.17-1,.59.59,0,0,0-.31-.54,2.33,2.33,0,0,0-1-.17l.1-.4,1.1,0,1.36,0,1.45,0,1.47,0a4.57,4.57,0,0,1,3,.83,2.73,2.73,0,0,1,1,2.19,4.46,4.46,0,0,1-.95,2.79,6.32,6.32,0,0,1-2.65,1.94,10.22,10.22,0,0,1-3.94.71Z" transform="translate(0 -2.82)"/><path class="cls-1" d="M30.36,10.36l.1-.4h.9a6.63,6.63,0,0,0,3-.58A3.51,3.51,0,0,0,36,7.82a4.88,4.88,0,0,0,.48-2.18,2.34,2.34,0,0,0-.59-1.75,2.74,2.74,0,0,0-2-.57,1.77,1.77,0,0,0-1.24.35A3.16,3.16,0,0,0,32.06,5L29.42,15a4.77,4.77,0,0,0-.18,1,.53.53,0,0,0,.29.54,2.54,2.54,0,0,0,1.07.19l-.08.4c-.31,0-.68,0-1.12,0H26.56c-.47,0-.84,0-1.12,0l.08-.4a4.76,4.76,0,0,0,1.06-.16,1.08,1.08,0,0,0,.6-.48,3.91,3.91,0,0,0,.4-1.08L30.22,5a3.5,3.5,0,0,0,.17-1,.59.59,0,0,0-.31-.54,2.33,2.33,0,0,0-1-.17l.1-.4.68,0,.87,0h.91l1.45,0,1.47,0a4.83,4.83,0,0,1,3,.77,2.48,2.48,0,0,1,1,2.05,3.44,3.44,0,0,1-.93,2.37A6.26,6.26,0,0,1,35,9.76a11.2,11.2,0,0,1-3.83.6Zm.2-.34,1.72.09,1,.09.71.1a4.12,4.12,0,0,1,1.31.42,1.64,1.64,0,0,1,.74.8,3,3,0,0,1,.15,1.42L36,15a4.17,4.17,0,0,0,.07,1.13q.1.53.57.51a.8.8,0,0,0,.63-.45,6.72,6.72,0,0,0,.55-1.23l.1-.28h.46l-.08.26a4.59,4.59,0,0,1-.89,1.83,1.89,1.89,0,0,1-1.49.61,1.66,1.66,0,0,1-1.42-.59,1.91,1.91,0,0,1-.38-1.33l.16-2.24a4.18,4.18,0,0,0-.15-1.68,1.55,1.55,0,0,0-1.06-.89,9,9,0,0,0-2.57-.27Z" transform="translate(0 -2.82)"/><path class="cls-1" d="M42.7,15c-.19.73-.21,1.2-.06,1.39s.56.3,1.24.33l-.08.4c-.31,0-.69,0-1.15,0H39.82c-.44,0-.81,0-1.1,0l.1-.4a4.55,4.55,0,0,0,1-.16,1.06,1.06,0,0,0,.59-.48,3.91,3.91,0,0,0,.4-1.08L43.48,5c.19-.73.2-1.2.05-1.39s-.56-.3-1.23-.33l.1-.4,1.08,0,1.46,0,1.39,0,1.17,0-.1.4a3.52,3.52,0,0,0-1.06.15,1.12,1.12,0,0,0-.59.48A4.39,4.39,0,0,0,45.34,5Z" transform="translate(0 -2.82)"/><path class="cls-1" d="M56.9,12.88c-.08.21-.16.46-.24.74l-.26.9c-.07.25-.15.62-.26,1.09s-.2,1-.28,1.47c-.68,0-1.45,0-2.3,0h-6c-.74,0-1.44,0-2.09,0l.1-.4a4.76,4.76,0,0,0,1.06-.16,1,1,0,0,0,.59-.48A4.63,4.63,0,0,0,47.66,15L50.32,5c.2-.73.22-1.2.07-1.39s-.56-.3-1.23-.33l.1-.4,1.1,0,1.46,0,1.39,0,1.15,0-.1.4a3.52,3.52,0,0,0-1.06.15,1.18,1.18,0,0,0-.6.48A4,4,0,0,0,52.18,5L49.52,15c-.2.73-.22,1.19-.07,1.38s.57.28,1.25.28h1.46a4.7,4.7,0,0,0,2-.36,3,3,0,0,0,1.26-1.18,11.85,11.85,0,0,0,1-2.2Z" transform="translate(0 -2.82)"/></g></g></svg>