<svg xmlns="http://www.w3.org/2000/svg" viewBox="0 0 93.19 66.84"><defs><style>.cls-1{fill:#116872;}</style></defs><g id="Layer_2" data-name="Layer 2"><g id="Layer_1-2" data-name="Layer 1"><path class="cls-1" d="M9.1,53a4.79,4.79,0,0,1-1.71-.28L5.9,52.18a4.77,4.77,0,0,0-1.72-.28,1.3,1.3,0,0,0-1,.35,1.35,1.35,0,0,0-.3,1,1.29,1.29,0,0,0,.41,1,2.18,2.18,0,0,0,1.07.5l-.06.4a3.45,3.45,0,0,1-1.47-.65,2,2,0,0,1-.73-1.67A2.41,2.41,0,0,1,2.68,51a2.18,2.18,0,0,1,1.74-.7,3.19,3.19,0,0,1,1.45.32,7.51,7.51,0,0,1,1.2.75,7.9,7.9,0,0,0,1.19.75,3.09,3.09,0,0,0,1.42.32,5.69,5.69,0,0,0,1.79-.25c.51-.17,1.1-.38,1.75-.65a4.49,4.49,0,0,1,.82-1c.27-.23.5-.25.7-.08s.15.31,0,.54a3.18,3.18,0,0,1-1.32.74,9.17,9.17,0,0,0-2.8,3,16.13,16.13,0,0,0-1.7,4.18L7.66,63.78a10.64,10.64,0,0,1-1,2.51,5.7,5.7,0,0,1-1.56,1.85,3.52,3.52,0,0,1-2.19.7,3.38,3.38,0,0,1-1.45-.27.92.92,0,0,1-.59-.83,1.16,1.16,0,0,1,.29-.81A1,1,0,0,1,2,66.56a.81.81,0,0,1,.59.23.84.84,0,0,1,.25.57.86.86,0,0,1-.22.63,1.79,1.79,0,0,1-.58.43,2.21,2.21,0,0,0,.32.07,2.34,2.34,0,0,0,.38,0A1.84,1.84,0,0,0,4.1,68,4.18,4.18,0,0,0,5,66.53a16.94,16.94,0,0,0,.65-2l.59-2.31.6-2.34a11.72,11.72,0,0,1,1.44-3.41,12.35,12.35,0,0,1,2.15-2.51,32.7,32.7,0,0,1,2.63-2.1l-1,.46a10.31,10.31,0,0,1-1,.39,7.36,7.36,0,0,1-1,.26A5.5,5.5,0,0,1,9.1,53Zm2.12,4.74-.06.4H4.74l.06-.4Z" transform="translate(-0.9 -2)"/><path class="cls-1" d="M13.52,61.84a5.47,5.47,0,0,0-.89,1.66.78.78,0,0,0,.23.89,2.15,2.15,0,0,0,1.2.29l-.1.4c-.37,0-.76,0-1.16,0h-2c-.23,0-.45,0-.66,0l.1-.4a2.5,2.5,0,0,0,.89-.49,6.3,6.3,0,0,0,1.11-1.25L20.9,50.82h.3L22,63.4a1.43,1.43,0,0,0,.37,1,1,1,0,0,0,.61.29l-.08.4c-.27,0-.6,0-1,0H19.36c-.43,0-.77,0-1,0l.08-.4a2.45,2.45,0,0,0,1.36-.35c.27-.21.39-.65.36-1.33l-.54-9.88.14,0Zm1.6-2.52H21l-.16.4h-6Z" transform="translate(-0.9 -2)"/><path class="cls-1" d="M24.42,66.14a1.78,1.78,0,0,0,.95-.29,2.44,2.44,0,0,0,.71-.75,12,12,0,0,0,1.17-2.88q.59-2,1.2-4.74c.41-1.85.82-3.89,1.23-6.1l.34.42c-.27,1.36-.55,2.75-.84,4.16s-.6,2.75-.91,4-.63,2.37-.94,3.31a7.06,7.06,0,0,1-.93,2,4.66,4.66,0,0,1-.85.87,2,2,0,0,1-1.29.39,1.16,1.16,0,0,1-1-.31,1.12,1.12,0,0,1-.25-.73,1.75,1.75,0,0,1,.3-1,1,1,0,0,1,.88-.46.65.65,0,0,1,.61.26,1,1,0,0,1,.15.52,1.35,1.35,0,0,1-.19.68,2.42,2.42,0,0,1-.45.58h.06Zm10.06-1L29.82,52l-.23.51-.23.51A3.43,3.43,0,0,0,29.47,52a.58.58,0,0,0-.4-.48,3.59,3.59,0,0,0-1.13-.15l.1-.4.79,0,1,0q.95,0,1.62-.06l3.84,11.24c-.05.41-.1.77-.13,1.06s-.07.59-.1.89-.08.66-.13,1.07Zm6.1-14.76a1.72,1.72,0,0,0-.95.29,2.55,2.55,0,0,0-.69.73,18,18,0,0,0-1.88,4.78q-1,3.42-2.14,9l-.28-.56c.24-1.12.51-2.34.81-3.65s.62-2.6.95-3.87.68-2.41,1.05-3.44a10.43,10.43,0,0,1,1.13-2.38,3.71,3.71,0,0,1,.9-.91A2.11,2.11,0,0,1,40.74,50a1.16,1.16,0,0,1,.95.31,1.08,1.08,0,0,1,.25.71,1.78,1.78,0,0,1-.3,1,1,1,0,0,1-.88.47.66.66,0,0,1-.6-.26,1,1,0,0,1-.16-.52,1.35,1.35,0,0,1,.19-.68,2.42,2.42,0,0,1,.45-.58h-.06Z" transform="translate(-0.9 -2)"/><path class="cls-1" d="M52.52,53.24a2.77,2.77,0,0,0,.12-1.14.79.79,0,0,0-.43-.58,2.43,2.43,0,0,0-1-.2l.1-.4.93,0,1.09,0,1,0,.85,0-.1.4a2.85,2.85,0,0,0-1.08.2,1.31,1.31,0,0,0-.63.58A4.71,4.71,0,0,0,53,53.24l-1.56,6a10.81,10.81,0,0,1-2,4.24,5.39,5.39,0,0,1-1.79,1.35,5.28,5.28,0,0,1-2.31.51,5.78,5.78,0,0,1-1.77-.25,2.89,2.89,0,0,1-1.31-.83,2.85,2.85,0,0,1-.7-2,12.92,12.92,0,0,1,.5-3L43.72,53c.19-.73.2-1.2.05-1.39s-.56-.3-1.23-.33l.12-.4,1.1,0,1.48,0,1.36,0,1.14,0-.12.4a3.52,3.52,0,0,0-1.06.15A1.12,1.12,0,0,0,46,52,4.39,4.39,0,0,0,45.56,53L43.8,59.66a13.25,13.25,0,0,0-.43,2.5A2.65,2.65,0,0,0,43.81,64a2.28,2.28,0,0,0,1.91.68,4.38,4.38,0,0,0,2.5-.67,5.1,5.1,0,0,0,1.64-1.85,11.32,11.32,0,0,0,1-2.66Z" transform="translate(-0.9 -2)"/><path class="cls-1" d="M54.7,61.84a5.47,5.47,0,0,0-.89,1.66.78.78,0,0,0,.23.89,2.15,2.15,0,0,0,1.2.29l-.1.4c-.37,0-.76,0-1.16,0H52c-.23,0-.45,0-.66,0l.1-.4a2.5,2.5,0,0,0,.89-.49,6.3,6.3,0,0,0,1.11-1.25l8.62-12.12h.3l.8,12.58a1.43,1.43,0,0,0,.37,1,1,1,0,0,0,.61.29l-.08.4c-.27,0-.6,0-1,0H60.54c-.43,0-.77,0-1,0l.08-.4a2.45,2.45,0,0,0,1.36-.35c.27-.21.39-.65.36-1.33l-.54-9.88.14,0Zm1.6-2.52h5.84l-.16.4h-6Z" transform="translate(-0.9 -2)"/><path class="cls-1" d="M69.94,58.36,70,58h.9a6.63,6.63,0,0,0,3-.58,3.51,3.51,0,0,0,1.6-1.56,4.88,4.88,0,0,0,.48-2.18,2.34,2.34,0,0,0-.59-1.75,2.74,2.74,0,0,0-2-.57,1.77,1.77,0,0,0-1.24.35A3.16,3.16,0,0,0,71.64,53L69,63a4.77,4.77,0,0,0-.18,1,.53.53,0,0,0,.29.54,2.54,2.54,0,0,0,1.07.19l-.08.4c-.31,0-.68,0-1.12,0H66.14c-.47,0-.84,0-1.12,0l.08-.4a4.76,4.76,0,0,0,1.06-.16,1.08,1.08,0,0,0,.6-.48,3.91,3.91,0,0,0,.4-1.08L69.8,53A3.5,3.5,0,0,0,70,52a.59.59,0,0,0-.31-.54,2.33,2.33,0,0,0-1-.17l.1-.4.68,0,.87,0h.91l1.45,0,1.47,0a4.83,4.83,0,0,1,3,.77,2.48,2.48,0,0,1,1,2,3.44,3.44,0,0,1-.93,2.37,6.26,6.26,0,0,1-2.58,1.63,11.2,11.2,0,0,1-3.83.6Zm.2-.34,1.72.09,1,.09.71.1a4.12,4.12,0,0,1,1.31.42,1.64,1.64,0,0,1,.74.8,3,3,0,0,1,.15,1.42l-.16,2a4.17,4.17,0,0,0,.07,1.13q.1.52.57.51a.8.8,0,0,0,.63-.45,6.72,6.72,0,0,0,.55-1.23l.1-.28H78l-.08.26A4.59,4.59,0,0,1,77,64.75a1.89,1.89,0,0,1-1.49.61,1.66,1.66,0,0,1-1.42-.59,1.91,1.91,0,0,1-.38-1.33l.16-2.24a4.18,4.18,0,0,0-.15-1.68,1.55,1.55,0,0,0-1.06-.89,9,9,0,0,0-2.57-.27Z" transform="translate(-0.9 -2)"/><path class="cls-1" d="M92.72,51.06a1.65,1.65,0,0,0-.59.14,2.62,2.62,0,0,0-.51.3A9.4,9.4,0,0,0,90.1,53a16.81,16.81,0,0,0-1.78,2.65,28.74,28.74,0,0,0-1.8,4l-1.18.1c0-.61-.12-1.28-.21-2s-.19-1.43-.31-2.14a15.62,15.62,0,0,0-.45-2,5,5,0,0,0-.64-1.42,1.07,1.07,0,0,0-.87-.53.8.8,0,0,0-.57.21,1.69,1.69,0,0,0-.39.73l-.56,1.64H80.9l.66-1.94a3.61,3.61,0,0,1,.7-1.31,1.64,1.64,0,0,1,1.26-.43,2,2,0,0,1,1.74.89,6.77,6.77,0,0,1,1,2.52,36.19,36.19,0,0,1,.6,3.83,19.05,19.05,0,0,1,1.73-3.41,16,16,0,0,1,2-2.53,7.08,7.08,0,0,1,1.09-.88A2.26,2.26,0,0,1,93,50.64a1,1,0,0,1,.92.37,1.23,1.23,0,0,1,.2.81,1.67,1.67,0,0,1-.31.84,1,1,0,0,1-.87.44.66.66,0,0,1-.62-.27,1,1,0,0,1-.14-.59,1.41,1.41,0,0,1,.2-.63,2.37,2.37,0,0,1,.44-.55h-.06ZM85.88,63c-.17.73-.19,1.2,0,1.39s.55.3,1.23.33l-.1.4-.7,0-.86,0H83c-.47,0-.85,0-1.14,0l.1-.4A4.76,4.76,0,0,0,83,64.52a1.08,1.08,0,0,0,.6-.48A3.91,3.91,0,0,0,84,63l1.38-5.48.7,1.26.66-.38.68-1.6Z" transform="translate(-0.9 -2)"/><path class="cls-1" d="M9.1,29a4.79,4.79,0,0,1-1.71-.28L5.9,28.18a4.77,4.77,0,0,0-1.72-.28,1.3,1.3,0,0,0-1,.35,1.35,1.35,0,0,0-.3,1,1.29,1.29,0,0,0,.41,1,2.18,2.18,0,0,0,1.07.5l-.06.4a3.45,3.45,0,0,1-1.47-.65,2,2,0,0,1-.73-1.67A2.41,2.41,0,0,1,2.68,27a2.18,2.18,0,0,1,1.74-.7,3.19,3.19,0,0,1,1.45.32,7.51,7.51,0,0,1,1.2.75,7.9,7.9,0,0,0,1.19.75,3.09,3.09,0,0,0,1.42.32,5.69,5.69,0,0,0,1.79-.25c.51-.17,1.1-.38,1.75-.65a4.49,4.49,0,0,1,.82-1c.27-.23.5-.25.7-.08s.15.31,0,.54a3.18,3.18,0,0,1-1.32.74,9.17,9.17,0,0,0-2.8,3,16.13,16.13,0,0,0-1.7,4.18L7.66,39.78a10.64,10.64,0,0,1-1,2.51,5.7,5.7,0,0,1-1.56,1.85,3.52,3.52,0,0,1-2.19.7,3.38,3.38,0,0,1-1.45-.27.92.92,0,0,1-.59-.83,1.16,1.16,0,0,1,.29-.81A1,1,0,0,1,2,42.56a.81.81,0,0,1,.59.23.84.84,0,0,1,.25.57.86.86,0,0,1-.22.63,1.79,1.79,0,0,1-.58.43,2.21,2.21,0,0,0,.32.07,2.34,2.34,0,0,0,.38,0A1.84,1.84,0,0,0,4.1,44,4.18,4.18,0,0,0,5,42.53a16.94,16.94,0,0,0,.65-2l.59-2.31.6-2.34a11.72,11.72,0,0,1,1.44-3.41,12.35,12.35,0,0,1,2.15-2.51,32.7,32.7,0,0,1,2.63-2.1l-1,.46a10.31,10.31,0,0,1-1,.39,7.36,7.36,0,0,1-1,.26A5.5,5.5,0,0,1,9.1,29Zm2.12,4.74-.06.4H4.74l.06-.4Z" transform="translate(-0.9 -2)"/><path class="cls-1" d="M13.52,37.84a5.47,5.47,0,0,0-.89,1.66.78.78,0,0,0,.23.89,2.15,2.15,0,0,0,1.2.29l-.1.4c-.37,0-.76,0-1.16,0h-2c-.23,0-.45,0-.66,0l.1-.4a2.5,2.5,0,0,0,.89-.49,6.3,6.3,0,0,0,1.11-1.25L20.9,26.82h.3L22,39.4a1.43,1.43,0,0,0,.37,1,1,1,0,0,0,.61.29l-.08.4c-.27,0-.6,0-1,0H19.36c-.43,0-.77,0-1,0l.08-.4a2.45,2.45,0,0,0,1.36-.35c.27-.21.39-.65.36-1.33l-.54-9.88.14,0Zm1.6-2.52H21l-.16.4h-6Z" transform="translate(-0.9 -2)"/><path class="cls-1" d="M24.42,42.14a1.78,1.78,0,0,0,.95-.29,2.44,2.44,0,0,0,.71-.75,12,12,0,0,0,1.17-2.88q.59-2,1.2-4.74c.41-1.85.82-3.89,1.23-6.1l.34.42c-.27,1.36-.55,2.75-.84,4.16s-.6,2.75-.91,4-.63,2.37-.94,3.31a7.06,7.06,0,0,1-.93,2,4.66,4.66,0,0,1-.85.87,2,2,0,0,1-1.29.39,1.16,1.16,0,0,1-1-.31,1.12,1.12,0,0,1-.25-.73,1.75,1.75,0,0,1,.3-1,1,1,0,0,1,.88-.46.65.65,0,0,1,.61.26,1,1,0,0,1,.15.52,1.35,1.35,0,0,1-.19.68,2.42,2.42,0,0,1-.45.58h.06Zm10.06-1L29.82,28l-.23.51-.23.51A3.43,3.43,0,0,0,29.47,28a.58.58,0,0,0-.4-.48,3.59,3.59,0,0,0-1.13-.15l.1-.4.79,0,1,0q.95,0,1.62-.06l3.84,11.24c-.05.41-.1.77-.13,1.06s-.07.59-.1.89-.08.66-.13,1.07Zm6.1-14.76a1.72,1.72,0,0,0-.95.29,2.55,2.55,0,0,0-.69.73,18,18,0,0,0-1.88,4.78q-1,3.42-2.14,9l-.28-.56c.24-1.12.51-2.34.81-3.65s.62-2.6.95-3.87.68-2.41,1.05-3.44a10.43,10.43,0,0,1,1.13-2.38,3.71,3.71,0,0,1,.9-.91A2.11,2.11,0,0,1,40.74,26a1.16,1.16,0,0,1,.95.31,1.08,1.08,0,0,1,.25.71,1.78,1.78,0,0,1-.3,1,1,1,0,0,1-.88.47.66.66,0,0,1-.6-.26,1,1,0,0,1-.16-.52,1.35,1.35,0,0,1,.19-.68,2.42,2.42,0,0,1,.45-.58h-.06Z" transform="translate(-0.9 -2)"/><path class="cls-1" d="M52.52,29.24a2.77,2.77,0,0,0,.12-1.14.79.79,0,0,0-.43-.58,2.43,2.43,0,0,0-1-.2l.1-.4.93,0,1.09,0,1,0,.85,0-.1.4a2.85,2.85,0,0,0-1.08.2,1.31,1.31,0,0,0-.63.58A4.71,4.71,0,0,0,53,29.24l-1.56,6a10.81,10.81,0,0,1-2,4.24,5.39,5.39,0,0,1-1.79,1.35,5.28,5.28,0,0,1-2.31.51,5.78,5.78,0,0,1-1.77-.25,2.89,2.89,0,0,1-1.31-.83,2.85,2.85,0,0,1-.7-2,12.92,12.92,0,0,1,.5-3L43.72,29c.19-.73.2-1.2.05-1.39s-.56-.3-1.23-.33l.12-.4,1.1,0,1.48,0,1.36,0,1.14,0-.12.4a3.52,3.52,0,0,0-1.06.15A1.12,1.12,0,0,0,46,28,4.39,4.39,0,0,0,45.56,29L43.8,35.66a13.25,13.25,0,0,0-.43,2.5A2.65,2.65,0,0,0,43.81,40a2.28,2.28,0,0,0,1.91.68,4.38,4.38,0,0,0,2.5-.67,5.1,5.1,0,0,0,1.64-1.85,11.32,11.32,0,0,0,1-2.66Z" transform="translate(-0.9 -2)"/><path class="cls-1" d="M54.7,37.84a5.47,5.47,0,0,0-.89,1.66.78.78,0,0,0,.23.89,2.15,2.15,0,0,0,1.2.29l-.1.4c-.37,0-.76,0-1.16,0H52c-.23,0-.45,0-.66,0l.1-.4a2.5,2.5,0,0,0,.89-.49,6.3,6.3,0,0,0,1.11-1.25l8.62-12.12h.3l.8,12.58a1.43,1.43,0,0,0,.37,1,1,1,0,0,0,.61.29l-.08.4c-.27,0-.6,0-1,0H60.54c-.43,0-.77,0-1,0l.08-.4a2.45,2.45,0,0,0,1.36-.35c.27-.21.39-.65.36-1.33l-.54-9.88.14,0Zm1.6-2.52h5.84l-.16.4h-6Z" transform="translate(-0.9 -2)"/><path class="cls-1" d="M69.94,34.36,70,34h.9a6.63,6.63,0,0,0,3-.58,3.51,3.51,0,0,0,1.6-1.56,4.88,4.88,0,0,0,.48-2.18,2.34,2.34,0,0,0-.59-1.75,2.74,2.74,0,0,0-2-.57,1.77,1.77,0,0,0-1.24.35A3.16,3.16,0,0,0,71.64,29L69,39a4.77,4.77,0,0,0-.18,1,.53.53,0,0,0,.29.54,2.54,2.54,0,0,0,1.07.19l-.08.4c-.31,0-.68,0-1.12,0H66.14c-.47,0-.84,0-1.12,0l.08-.4a4.76,4.76,0,0,0,1.06-.16,1.08,1.08,0,0,0,.6-.48,3.91,3.91,0,0,0,.4-1.08L69.8,29A3.5,3.5,0,0,0,70,28a.59.59,0,0,0-.31-.54,2.33,2.33,0,0,0-1-.17l.1-.4.68,0,.87,0h.91l1.45,0,1.47,0a4.83,4.83,0,0,1,3,.77,2.48,2.48,0,0,1,1,2.05,3.44,3.44,0,0,1-.93,2.37,6.26,6.26,0,0,1-2.58,1.63,11.2,11.2,0,0,1-3.83.6Zm.2-.34,1.72.09,1,.09.71.1a4.12,4.12,0,0,1,1.31.42,1.64,1.64,0,0,1,.74.8,3,3,0,0,1,.15,1.42l-.16,2a4.17,4.17,0,0,0,.07,1.13q.1.53.57.51a.8.8,0,0,0,.63-.45,6.72,6.72,0,0,0,.55-1.23l.1-.28H78l-.08.26A4.59,4.59,0,0,1,77,40.75a1.89,1.89,0,0,1-1.49.61,1.66,1.66,0,0,1-1.42-.59,1.91,1.91,0,0,1-.38-1.33l.16-2.24a4.18,4.18,0,0,0-.15-1.68,1.55,1.55,0,0,0-1.06-.89,9,9,0,0,0-2.57-.27Z" transform="translate(-0.9 -2)"/><path class="cls-1" d="M92.72,27.06a1.65,1.65,0,0,0-.59.14,2.62,2.62,0,0,0-.51.3A9.4,9.4,0,0,0,90.1,29a16.81,16.81,0,0,0-1.78,2.65,28.74,28.74,0,0,0-1.8,4l-1.18.1c0-.61-.12-1.28-.21-2s-.19-1.43-.31-2.14a15.62,15.62,0,0,0-.45-1.95,5,5,0,0,0-.64-1.42,1.07,1.07,0,0,0-.87-.53.8.8,0,0,0-.57.21,1.69,1.69,0,0,0-.39.73l-.56,1.64H80.9l.66-1.94a3.61,3.61,0,0,1,.7-1.31,1.64,1.64,0,0,1,1.26-.43,2,2,0,0,1,1.74.89,6.77,6.77,0,0,1,1,2.52,36.19,36.19,0,0,1,.6,3.83,19.05,19.05,0,0,1,1.73-3.41,16,16,0,0,1,2-2.53,7.08,7.08,0,0,1,1.09-.88A2.26,2.26,0,0,1,93,26.64a1,1,0,0,1,.92.37,1.23,1.23,0,0,1,.2.81,1.67,1.67,0,0,1-.31.84,1,1,0,0,1-.87.44.66.66,0,0,1-.62-.27,1,1,0,0,1-.14-.59,1.41,1.41,0,0,1,.2-.63,2.37,2.37,0,0,1,.44-.55h-.06ZM85.88,39c-.17.73-.19,1.2,0,1.39s.55.3,1.23.33l-.1.4-.7,0-.86,0H83c-.47,0-.85,0-1.14,0l.1-.4A4.76,4.76,0,0,0,83,40.52a1.08,1.08,0,0,0,.6-.48A3.91,3.91,0,0,0,84,39l1.38-5.48.7,1.26.66-.38.68-1.6Z" transform="translate(-0.9 -2)"/><path class="cls-1" d="M9.1,5a4.79,4.79,0,0,1-1.71-.28L5.9,4.18A4.77,4.77,0,0,0,4.18,3.9a1.3,1.3,0,0,0-1,.35,1.35,1.35,0,0,0-.3,1,1.29,1.29,0,0,0,.41,1,2.18,2.18,0,0,0,1.07.5l-.06.4a3.45,3.45,0,0,1-1.47-.65A2,2,0,0,1,2.1,4.76,2.41,2.41,0,0,1,2.68,3a2.18,2.18,0,0,1,1.74-.7,3.19,3.19,0,0,1,1.45.32,7.51,7.51,0,0,1,1.2.75,7.9,7.9,0,0,0,1.19.75,3.09,3.09,0,0,0,1.42.32,5.69,5.69,0,0,0,1.79-.25c.51-.17,1.1-.38,1.75-.65a4.49,4.49,0,0,1,.82-1c.27-.23.5-.25.7-.08s.15.31,0,.54a3.18,3.18,0,0,1-1.32.74,9.17,9.17,0,0,0-2.8,3,16.13,16.13,0,0,0-1.7,4.18L7.66,15.78a10.64,10.64,0,0,1-1,2.51,5.7,5.7,0,0,1-1.56,1.85,3.52,3.52,0,0,1-2.19.7,3.38,3.38,0,0,1-1.45-.27.92.92,0,0,1-.59-.83,1.16,1.16,0,0,1,.29-.81A1,1,0,0,1,2,18.56a.81.81,0,0,1,.59.23.84.84,0,0,1,.25.57.86.86,0,0,1-.22.63,1.79,1.79,0,0,1-.58.43,2.21,2.21,0,0,0,.32.07,2.34,2.34,0,0,0,.38,0A1.84,1.84,0,0,0,4.1,20,4.18,4.18,0,0,0,5,18.53a16.94,16.94,0,0,0,.65-2l.59-2.31.6-2.34A11.72,11.72,0,0,1,8.28,8.43a12.35,12.35,0,0,1,2.15-2.51,32.7,32.7,0,0,1,2.63-2.1l-1,.46a10.31,10.31,0,0,1-1,.39,7.36,7.36,0,0,1-1,.26A5.5,5.5,0,0,1,9.1,5Zm2.12,4.74-.06.4H4.74l.06-.4Z" transform="translate(-0.9 -2)"/><path class="cls-1" d="M13.52,13.84a5.47,5.47,0,0,0-.89,1.66.78.78,0,0,0,.23.89,2.15,2.15,0,0,0,1.2.29l-.1.4c-.37,0-.76,0-1.16,0h-2c-.23,0-.45,0-.66,0l.1-.4a2.5,2.5,0,0,0,.89-.49,6.3,6.3,0,0,0,1.11-1.25L20.9,2.82h.3L22,15.4a1.43,1.43,0,0,0,.37,1,1,1,0,0,0,.61.29l-.08.4c-.27,0-.6,0-1,0H19.36c-.43,0-.77,0-1,0l.08-.4a2.45,2.45,0,0,0,1.36-.35c.27-.21.39-.65.36-1.33l-.54-9.88.14,0Zm1.6-2.52H21l-.16.4h-6Z" transform="translate(-0.9 -2)"/><path class="cls-1" d="M24.42,18.14a1.78,1.78,0,0,0,.95-.29,2.44,2.44,0,0,0,.71-.75,12,12,0,0,0,1.17-2.88q.59-2,1.2-4.74c.41-1.85.82-3.89,1.23-6.1L30,3.8c-.27,1.36-.55,2.75-.84,4.16s-.6,2.75-.91,4-.63,2.37-.94,3.31a7.06,7.06,0,0,1-.93,2,4.66,4.66,0,0,1-.85.87,2,2,0,0,1-1.29.39,1.16,1.16,0,0,1-1-.31,1.12,1.12,0,0,1-.25-.73,1.75,1.75,0,0,1,.3-1,1,1,0,0,1,.88-.46.65.65,0,0,1,.61.26,1,1,0,0,1,.15.52,1.35,1.35,0,0,1-.19.68,2.42,2.42,0,0,1-.45.58h.06Zm10.06-1L29.82,4l-.23.51L29.36,5A3.43,3.43,0,0,0,29.47,4a.58.58,0,0,0-.4-.48,3.59,3.59,0,0,0-1.13-.15l.1-.4.79,0,1,0q.95,0,1.62-.06l3.84,11.24c-.05.41-.1.77-.13,1.06s-.07.59-.1.89-.08.66-.13,1.07Zm6.1-14.76a1.72,1.72,0,0,0-.95.29,2.55,2.55,0,0,0-.69.73,18,18,0,0,0-1.88,4.78q-1,3.42-2.14,9l-.28-.56c.24-1.12.51-2.34.81-3.65s.62-2.6.95-3.87.68-2.41,1.05-3.44a10.43,10.43,0,0,1,1.13-2.38,3.71,3.71,0,0,1,.9-.91A2.11,2.11,0,0,1,40.74,2a1.16,1.16,0,0,1,.95.31,1.08,1.08,0,0,1,.25.71,1.78,1.78,0,0,1-.3,1,1,1,0,0,1-.88.47.66.66,0,0,1-.6-.26A1,1,0,0,1,40,3.68,1.35,1.35,0,0,1,40.19,3a2.42,2.42,0,0,1,.45-.58h-.06Z" transform="translate(-0.9 -2)"/><path class="cls-1" d="M52.52,5.24a2.77,2.77,0,0,0,.12-1.14.79.79,0,0,0-.43-.58,2.43,2.43,0,0,0-1-.2l.1-.4.93,0L53.3,3l1,0,.85,0-.1.4a2.85,2.85,0,0,0-1.08.2,1.31,1.31,0,0,0-.63.58A4.71,4.71,0,0,0,53,5.24l-1.56,6a10.81,10.81,0,0,1-2,4.24,5.39,5.39,0,0,1-1.79,1.35,5.28,5.28,0,0,1-2.31.51,5.78,5.78,0,0,1-1.77-.25,2.89,2.89,0,0,1-1.31-.83,2.85,2.85,0,0,1-.7-2,12.92,12.92,0,0,1,.5-3L43.72,5c.19-.73.2-1.2.05-1.39s-.56-.3-1.23-.33l.12-.4,1.1,0,1.48,0L46.6,3l1.14,0-.12.4a3.52,3.52,0,0,0-1.06.15A1.12,1.12,0,0,0,46,4,4.39,4.39,0,0,0,45.56,5L43.8,11.66a13.25,13.25,0,0,0-.43,2.5A2.65,2.65,0,0,0,43.81,16a2.28,2.28,0,0,0,1.91.68,4.38,4.38,0,0,0,2.5-.67,5.1,5.1,0,0,0,1.64-1.85,11.32,11.32,0,0,0,1-2.66Z" transform="translate(-0.9 -2)"/><path class="cls-1" d="M54.7,13.84a5.47,5.47,0,0,0-.89,1.66.78.78,0,0,0,.23.89,2.15,2.15,0,0,0,1.2.29l-.1.4c-.37,0-.76,0-1.16,0H52c-.23,0-.45,0-.66,0l.1-.4a2.5,2.5,0,0,0,.89-.49,6.3,6.3,0,0,0,1.11-1.25L62.08,2.82h.3l.8,12.58a1.43,1.43,0,0,0,.37,1,1,1,0,0,0,.61.29l-.08.4c-.27,0-.6,0-1,0H60.54c-.43,0-.77,0-1,0l.08-.4a2.45,2.45,0,0,0,1.36-.35c.27-.21.39-.65.36-1.33l-.54-9.88.14,0Zm1.6-2.52h5.84l-.16.4h-6Z" transform="translate(-0.9 -2)"/><path class="cls-1" d="M69.94,10.36,70,10h.9a6.63,6.63,0,0,0,3-.58,3.51,3.51,0,0,0,1.6-1.56,4.88,4.88,0,0,0,.48-2.18,2.34,2.34,0,0,0-.59-1.75,2.74,2.74,0,0,0-2-.57,1.77,1.77,0,0,0-1.24.35A3.16,3.16,0,0,0,71.64,5L69,15a4.77,4.77,0,0,0-.18,1,.53.53,0,0,0,.29.54,2.54,2.54,0,0,0,1.07.19l-.08.4c-.31,0-.68,0-1.12,0H66.14c-.47,0-.84,0-1.12,0l.08-.4a4.76,4.76,0,0,0,1.06-.16,1.08,1.08,0,0,0,.6-.48,3.91,3.91,0,0,0,.4-1.08L69.8,5A3.5,3.5,0,0,0,70,4a.59.59,0,0,0-.31-.54,2.33,2.33,0,0,0-1-.17l.1-.4.68,0,.87,0h.91l1.45,0,1.47,0a4.83,4.83,0,0,1,3,.77,2.48,2.48,0,0,1,1,2.05,3.44,3.44,0,0,1-.93,2.37,6.26,6.26,0,0,1-2.58,1.63,11.2,11.2,0,0,1-3.83.6Zm.2-.34,1.72.09,1,.09.71.1a4.12,4.12,0,0,1,1.31.42,1.64,1.64,0,0,1,.74.8,3,3,0,0,1,.15,1.42l-.16,2a4.17,4.17,0,0,0,.07,1.13q.1.53.57.51a.8.8,0,0,0,.63-.45,6.72,6.72,0,0,0,.55-1.23l.1-.28H78l-.08.26A4.59,4.59,0,0,1,77,16.75a1.89,1.89,0,0,1-1.49.61,1.66,1.66,0,0,1-1.42-.59,1.91,1.91,0,0,1-.38-1.33l.16-2.24a4.18,4.18,0,0,0-.15-1.68,1.55,1.55,0,0,0-1.06-.89,9,9,0,0,0-2.57-.27Z" transform="translate(-0.9 -2)"/><path class="cls-1" d="M92.72,3.06a1.65,1.65,0,0,0-.59.14,2.62,2.62,0,0,0-.51.3A9.4,9.4,0,0,0,90.1,5a16.81,16.81,0,0,0-1.78,2.65,28.74,28.74,0,0,0-1.8,4l-1.18.1c0-.61-.12-1.28-.21-2s-.19-1.43-.31-2.14a15.62,15.62,0,0,0-.45-1.95,5,5,0,0,0-.64-1.42,1.07,1.07,0,0,0-.87-.53.8.8,0,0,0-.57.21,1.69,1.69,0,0,0-.39.73l-.56,1.64H80.9l.66-1.94a3.61,3.61,0,0,1,.7-1.31,1.64,1.64,0,0,1,1.26-.43,2,2,0,0,1,1.74.89,6.77,6.77,0,0,1,1,2.52,36.19,36.19,0,0,1,.6,3.83,19.05,19.05,0,0,1,1.73-3.41,16,16,0,0,1,2-2.53,7.08,7.08,0,0,1,1.09-.88A2.26,2.26,0,0,1,93,2.64a1,1,0,0,1,.92.37,1.23,1.23,0,0,1,.2.81,1.67,1.67,0,0,1-.31.84,1,1,0,0,1-.87.44.66.66,0,0,1-.62-.27,1,1,0,0,1-.14-.59,1.41,1.41,0,0,1,.2-.63,2.37,2.37,0,0,1,.44-.55h-.06ZM85.88,15c-.17.73-.19,1.2,0,1.39s.55.3,1.23.33l-.1.4-.7,0-.86,0H83c-.47,0-.85,0-1.14,0l.1-.4A4.76,4.76,0,0,0,83,16.52a1.08,1.08,0,0,0,.6-.48A3.91,3.91,0,0,0,84,15L85.4,9.48l.7,1.26.66-.38.68-1.6Z" transform="translate(-0.9 -2)"/></g></g></svg>