<svg xmlns="http://www.w3.org/2000/svg" viewBox="0 0 73.7 62.72"><defs><style>.cls-1{fill:#ff9750;}</style></defs><g id="Layer_2" data-name="Layer 2"><g id="Layer_1-2" data-name="Layer 1"><path class="cls-1" d="M15.88,51h1l1.36,0,1.14,0-.1.4a3.52,3.52,0,0,0-1.06.15,1.12,1.12,0,0,0-.59.48A4.39,4.39,0,0,0,17.18,53L14.54,63c-.19.73-.2,1.2,0,1.39s.56.3,1.23.33l-.08.4c-.31,0-.68,0-1.12,0H11.68c-.47,0-.84,0-1.12,0l.08-.4a4.67,4.67,0,0,0,1.07-.16A1.06,1.06,0,0,0,12.3,64,3.91,3.91,0,0,0,12.7,63l2.9-10.78-8.3,13H6.86L5.5,52,2.66,62.76a4.3,4.3,0,0,0-.16,1.13.62.62,0,0,0,.38.58A3.3,3.3,0,0,0,4,64.68l-.1.4c-.23,0-.53,0-.92,0H.86c-.35,0-.63,0-.86,0l.1-.4a2.16,2.16,0,0,0,1.43-.43,3.4,3.4,0,0,0,.67-1.49L4.8,53c.19-.73.2-1.2,0-1.39s-.56-.3-1.23-.33l.1-.4.79,0,1,0,.94,0,.82,0,1.1,11.86Z" transform="translate(0 -2.64)"/><path class="cls-1" d="M19.64,61.84a5.47,5.47,0,0,0-.89,1.66.78.78,0,0,0,.23.89,2.15,2.15,0,0,0,1.2.29l-.1.4c-.37,0-.76,0-1.16,0H17c-.23,0-.45,0-.66,0l.1-.4a2.5,2.5,0,0,0,.89-.49,6.3,6.3,0,0,0,1.11-1.25L27,50.82h.3l.8,12.58a1.43,1.43,0,0,0,.37,1,1,1,0,0,0,.61.29l-.08.4c-.27,0-.6,0-1,0H25.48c-.43,0-.77,0-1,0l.08-.4a2.45,2.45,0,0,0,1.36-.35c.27-.21.39-.65.36-1.33l-.54-9.88.14,0Zm1.6-2.52h5.84l-.16.4h-6Z" transform="translate(0 -2.64)"/><path class="cls-1" d="M34.88,58.36,35,58h.9a6.63,6.63,0,0,0,3-.58,3.51,3.51,0,0,0,1.6-1.56A4.88,4.88,0,0,0,41,53.64a2.34,2.34,0,0,0-.59-1.75,2.74,2.74,0,0,0-1.95-.57,1.77,1.77,0,0,0-1.24.35A3.16,3.16,0,0,0,36.58,53L33.94,63a4.77,4.77,0,0,0-.18,1,.53.53,0,0,0,.29.54,2.54,2.54,0,0,0,1.07.19l-.08.4c-.31,0-.68,0-1.12,0H31.08c-.47,0-.84,0-1.12,0l.08-.4a4.76,4.76,0,0,0,1.06-.16,1.08,1.08,0,0,0,.6-.48A3.91,3.91,0,0,0,32.1,63L34.74,53a3.5,3.5,0,0,0,.17-1,.59.59,0,0,0-.31-.54,2.33,2.33,0,0,0-1-.17l.1-.4.68,0,.87,0h.91l1.45,0,1.47,0a4.83,4.83,0,0,1,3,.77,2.48,2.48,0,0,1,1,2,3.44,3.44,0,0,1-.93,2.37,6.26,6.26,0,0,1-2.58,1.63,11.2,11.2,0,0,1-3.83.6Zm.2-.34,1.72.09,1,.09.71.1a4.12,4.12,0,0,1,1.31.42,1.64,1.64,0,0,1,.74.8,3,3,0,0,1,.15,1.42l-.16,2a4.17,4.17,0,0,0,.07,1.13q.11.52.57.51a.8.8,0,0,0,.63-.45,6.72,6.72,0,0,0,.55-1.23l.1-.28h.46l-.08.26A4.59,4.59,0,0,1,42,64.75a1.89,1.89,0,0,1-1.49.61A1.66,1.66,0,0,1,39,64.77a1.91,1.91,0,0,1-.38-1.33l.16-2.24a4.18,4.18,0,0,0-.15-1.68,1.55,1.55,0,0,0-1.06-.89A9,9,0,0,0,35,58.36Z" transform="translate(0 -2.64)"/><path class="cls-1" d="M58.14,50.92c-.2.52-.41,1.15-.62,1.89s-.43,1.64-.66,2.71h-.44a8.09,8.09,0,0,0,.11-1.75,3.07,3.07,0,0,0-.31-1.21,2.66,2.66,0,0,0-1.09-1.16A3,3,0,0,0,53.6,51a3.75,3.75,0,0,0-2,.61,7.55,7.55,0,0,0-1.82,1.65,12.52,12.52,0,0,0-1.48,2.35,13.86,13.86,0,0,0-1,2.72,11.11,11.11,0,0,0-.36,2.75A4.71,4.71,0,0,0,47.69,64a2.52,2.52,0,0,0,2.09,1,4.85,4.85,0,0,0,1.83-.4,5,5,0,0,0,1.73-1.16,5.27,5.27,0,0,0,.93-1.27q.39-.73.87-1.89h.44c-.33,1.21-.59,2.19-.77,2.93s-.32,1.36-.41,1.87H54A5.07,5.07,0,0,0,54,64.4c0-.31-.05-.48-.16-.51s-.27,0-.5.17a12.3,12.3,0,0,1-1.64.92,5.19,5.19,0,0,1-2.14.38,4.74,4.74,0,0,1-3.43-1.19,4.66,4.66,0,0,1-1.23-3.51,9.65,9.65,0,0,1,.42-2.77,11.86,11.86,0,0,1,1.2-2.71,10.77,10.77,0,0,1,1.86-2.32,8.75,8.75,0,0,1,2.4-1.62,6.79,6.79,0,0,1,2.84-.6,3.53,3.53,0,0,1,1.91.4,5.93,5.93,0,0,1,1.07.9c.19.19.36.21.53.07a2.76,2.76,0,0,0,.57-1.09Z" transform="translate(0 -2.64)"/><path class="cls-1" d="M60.62,63c-.19.73-.21,1.2-.06,1.39s.56.3,1.24.33l-.08.4c-.31,0-.69,0-1.15,0H57.74c-.44,0-.81,0-1.1,0l.1-.4a4.55,4.55,0,0,0,1-.16,1.06,1.06,0,0,0,.59-.48,3.91,3.91,0,0,0,.4-1.08L61.4,53c.19-.73.2-1.2.05-1.39s-.56-.3-1.23-.33l.1-.4,1.08,0,1.46,0,1.39,0,1.17,0-.1.4a3.52,3.52,0,0,0-1.06.15,1.12,1.12,0,0,0-.59.48A4.39,4.39,0,0,0,63.26,53Zm.9-4.8.14-.4h7.06l-.16.4ZM69.68,53c.2-.73.22-1.2.06-1.39s-.57-.3-1.24-.33l.1-.4,1.15,0,1.37,0,1.46,0,1.12,0-.1.4a3.52,3.52,0,0,0-1.06.15A1.12,1.12,0,0,0,72,52,4.39,4.39,0,0,0,71.54,53L68.9,63c-.19.73-.21,1.2-.06,1.39s.56.3,1.24.33l-.08.4c-.28,0-.65,0-1.1,0H66.06c-.47,0-.85,0-1.16,0l.08-.4A4.76,4.76,0,0,0,66,64.52a1.08,1.08,0,0,0,.6-.48A3.91,3.91,0,0,0,67,63Z" transform="translate(0 -2.64)"/><path class="cls-1" d="M15.88,27h1l1.36,0,1.14,0-.1.4a3.52,3.52,0,0,0-1.06.15,1.12,1.12,0,0,0-.59.48A4.39,4.39,0,0,0,17.18,29L14.54,39c-.19.73-.2,1.2,0,1.39s.56.3,1.23.33l-.08.4c-.31,0-.68,0-1.12,0H11.68c-.47,0-.84,0-1.12,0l.08-.4a4.67,4.67,0,0,0,1.07-.16A1.06,1.06,0,0,0,12.3,40,3.91,3.91,0,0,0,12.7,39l2.9-10.78-8.3,13H6.86L5.5,28,2.66,38.76a4.3,4.3,0,0,0-.16,1.13.62.62,0,0,0,.38.58A3.3,3.3,0,0,0,4,40.68l-.1.4c-.23,0-.53,0-.92,0H.86c-.35,0-.63,0-.86,0l.1-.4a2.16,2.16,0,0,0,1.43-.43,3.4,3.4,0,0,0,.67-1.49L4.8,29c.19-.73.2-1.2,0-1.39s-.56-.3-1.23-.33l.1-.4.79,0,1,0,.94,0,.82,0,1.1,11.86Z" transform="translate(0 -2.64)"/><path class="cls-1" d="M19.64,37.84a5.47,5.47,0,0,0-.89,1.66.78.78,0,0,0,.23.89,2.15,2.15,0,0,0,1.2.29l-.1.4c-.37,0-.76,0-1.16,0H17c-.23,0-.45,0-.66,0l.1-.4a2.5,2.5,0,0,0,.89-.49,6.3,6.3,0,0,0,1.11-1.25L27,26.82h.3l.8,12.58a1.43,1.43,0,0,0,.37,1,1,1,0,0,0,.61.29l-.08.4c-.27,0-.6,0-1,0H25.48c-.43,0-.77,0-1,0l.08-.4a2.45,2.45,0,0,0,1.36-.35c.27-.21.39-.65.36-1.33l-.54-9.88.14,0Zm1.6-2.52h5.84l-.16.4h-6Z" transform="translate(0 -2.64)"/><path class="cls-1" d="M34.88,34.36,35,34h.9a6.63,6.63,0,0,0,3-.58,3.51,3.51,0,0,0,1.6-1.56A4.88,4.88,0,0,0,41,29.64a2.34,2.34,0,0,0-.59-1.75,2.74,2.74,0,0,0-1.95-.57,1.77,1.77,0,0,0-1.24.35A3.16,3.16,0,0,0,36.58,29L33.94,39a4.77,4.77,0,0,0-.18,1,.53.53,0,0,0,.29.54,2.54,2.54,0,0,0,1.07.19l-.08.4c-.31,0-.68,0-1.12,0H31.08c-.47,0-.84,0-1.12,0l.08-.4a4.76,4.76,0,0,0,1.06-.16,1.08,1.08,0,0,0,.6-.48A3.91,3.91,0,0,0,32.1,39L34.74,29a3.5,3.5,0,0,0,.17-1,.59.59,0,0,0-.31-.54,2.33,2.33,0,0,0-1-.17l.1-.4.68,0,.87,0h.91l1.45,0,1.47,0a4.83,4.83,0,0,1,3,.77,2.48,2.48,0,0,1,1,2.05,3.44,3.44,0,0,1-.93,2.37,6.26,6.26,0,0,1-2.58,1.63,11.2,11.2,0,0,1-3.83.6Zm.2-.34,1.72.09,1,.09.71.1a4.12,4.12,0,0,1,1.31.42,1.64,1.64,0,0,1,.74.8,3,3,0,0,1,.15,1.42l-.16,2a4.17,4.17,0,0,0,.07,1.13q.11.53.57.51a.8.8,0,0,0,.63-.45,6.72,6.72,0,0,0,.55-1.23l.1-.28h.46l-.08.26A4.59,4.59,0,0,1,42,40.75a1.89,1.89,0,0,1-1.49.61A1.66,1.66,0,0,1,39,40.77a1.91,1.91,0,0,1-.38-1.33l.16-2.24a4.18,4.18,0,0,0-.15-1.68,1.55,1.55,0,0,0-1.06-.89A9,9,0,0,0,35,34.36Z" transform="translate(0 -2.64)"/><path class="cls-1" d="M58.14,26.92c-.2.52-.41,1.15-.62,1.89s-.43,1.64-.66,2.71h-.44a8.09,8.09,0,0,0,.11-1.75,3.07,3.07,0,0,0-.31-1.21,2.66,2.66,0,0,0-1.09-1.16A3,3,0,0,0,53.6,27a3.75,3.75,0,0,0-2,.61,7.55,7.55,0,0,0-1.82,1.65,12.52,12.52,0,0,0-1.48,2.35,13.86,13.86,0,0,0-1,2.72,11.11,11.11,0,0,0-.36,2.75A4.71,4.71,0,0,0,47.69,40a2.52,2.52,0,0,0,2.09,1,4.85,4.85,0,0,0,1.83-.4,5,5,0,0,0,1.73-1.16,5.27,5.27,0,0,0,.93-1.27q.39-.73.87-1.89h.44c-.33,1.21-.59,2.19-.77,2.93s-.32,1.36-.41,1.87H54A5.07,5.07,0,0,0,54,40.4c0-.31-.05-.48-.16-.51s-.27,0-.5.17a12.3,12.3,0,0,1-1.64.92,5.19,5.19,0,0,1-2.14.38,4.74,4.74,0,0,1-3.43-1.19,4.66,4.66,0,0,1-1.23-3.51,9.65,9.65,0,0,1,.42-2.77,11.86,11.86,0,0,1,1.2-2.71,10.77,10.77,0,0,1,1.86-2.32,8.75,8.75,0,0,1,2.4-1.62,6.79,6.79,0,0,1,2.84-.6,3.53,3.53,0,0,1,1.91.4,5.93,5.93,0,0,1,1.07.9c.19.19.36.21.53.07a2.76,2.76,0,0,0,.57-1.09Z" transform="translate(0 -2.64)"/><path class="cls-1" d="M60.62,39c-.19.73-.21,1.2-.06,1.39s.56.3,1.24.33l-.08.4c-.31,0-.69,0-1.15,0H57.74c-.44,0-.81,0-1.1,0l.1-.4a4.55,4.55,0,0,0,1-.16,1.06,1.06,0,0,0,.59-.48,3.91,3.91,0,0,0,.4-1.08L61.4,29c.19-.73.2-1.2.05-1.39s-.56-.3-1.23-.33l.1-.4,1.08,0,1.46,0,1.39,0,1.17,0-.1.4a3.52,3.52,0,0,0-1.06.15,1.12,1.12,0,0,0-.59.48A4.39,4.39,0,0,0,63.26,29Zm.9-4.8.14-.4h7.06l-.16.4ZM69.68,29c.2-.73.22-1.2.06-1.39s-.57-.3-1.24-.33l.1-.4,1.15,0,1.37,0,1.46,0,1.12,0-.1.4a3.52,3.52,0,0,0-1.06.15A1.12,1.12,0,0,0,72,28,4.39,4.39,0,0,0,71.54,29L68.9,39c-.19.73-.21,1.2-.06,1.39s.56.3,1.24.33l-.08.4c-.28,0-.65,0-1.1,0H66.06c-.47,0-.85,0-1.16,0l.08-.4A4.76,4.76,0,0,0,66,40.52a1.08,1.08,0,0,0,.6-.48A3.91,3.91,0,0,0,67,39Z" transform="translate(0 -2.64)"/><path class="cls-1" d="M15.88,3h1L18.2,3l1.14,0-.1.4a3.52,3.52,0,0,0-1.06.15,1.12,1.12,0,0,0-.59.48A4.39,4.39,0,0,0,17.18,5L14.54,15c-.19.73-.2,1.2,0,1.39s.56.3,1.23.33l-.08.4c-.31,0-.68,0-1.12,0H11.68c-.47,0-.84,0-1.12,0l.08-.4a4.67,4.67,0,0,0,1.07-.16A1.06,1.06,0,0,0,12.3,16,3.91,3.91,0,0,0,12.7,15L15.6,4.18l-8.3,13H6.86L5.5,4,2.66,14.76a4.3,4.3,0,0,0-.16,1.13.62.62,0,0,0,.38.58A3.3,3.3,0,0,0,4,16.68l-.1.4c-.23,0-.53,0-.92,0H.86c-.35,0-.63,0-.86,0l.1-.4a2.16,2.16,0,0,0,1.43-.43,3.4,3.4,0,0,0,.67-1.49L4.8,5c.19-.73.2-1.2,0-1.39s-.56-.3-1.23-.33l.1-.4.79,0,1,0,.94,0,.82,0,1.1,11.86Z" transform="translate(0 -2.64)"/><path class="cls-1" d="M19.64,13.84a5.47,5.47,0,0,0-.89,1.66.78.78,0,0,0,.23.89,2.15,2.15,0,0,0,1.2.29l-.1.4c-.37,0-.76,0-1.16,0H17c-.23,0-.45,0-.66,0l.1-.4a2.5,2.5,0,0,0,.89-.49,6.3,6.3,0,0,0,1.11-1.25L27,2.82h.3l.8,12.58a1.43,1.43,0,0,0,.37,1,1,1,0,0,0,.61.29l-.08.4c-.27,0-.6,0-1,0H25.48c-.43,0-.77,0-1,0l.08-.4a2.45,2.45,0,0,0,1.36-.35c.27-.21.39-.65.36-1.33L25.7,5.12l.14,0Zm1.6-2.52h5.84l-.16.4h-6Z" transform="translate(0 -2.64)"/><path class="cls-1" d="M34.88,10.36,35,10h.9a6.63,6.63,0,0,0,3-.58,3.51,3.51,0,0,0,1.6-1.56A4.88,4.88,0,0,0,41,5.64a2.34,2.34,0,0,0-.59-1.75,2.74,2.74,0,0,0-1.95-.57,1.77,1.77,0,0,0-1.24.35A3.16,3.16,0,0,0,36.58,5L33.94,15a4.77,4.77,0,0,0-.18,1,.53.53,0,0,0,.29.54,2.54,2.54,0,0,0,1.07.19l-.08.4c-.31,0-.68,0-1.12,0H31.08c-.47,0-.84,0-1.12,0l.08-.4a4.76,4.76,0,0,0,1.06-.16,1.08,1.08,0,0,0,.6-.48A3.91,3.91,0,0,0,32.1,15L34.74,5a3.5,3.5,0,0,0,.17-1,.59.59,0,0,0-.31-.54,2.33,2.33,0,0,0-1-.17l.1-.4.68,0,.87,0h.91l1.45,0,1.47,0a4.83,4.83,0,0,1,3,.77,2.48,2.48,0,0,1,1,2.05,3.44,3.44,0,0,1-.93,2.37,6.26,6.26,0,0,1-2.58,1.63,11.2,11.2,0,0,1-3.83.6Zm.2-.34,1.72.09,1,.09.71.1a4.12,4.12,0,0,1,1.31.42,1.64,1.64,0,0,1,.74.8,3,3,0,0,1,.15,1.42l-.16,2a4.17,4.17,0,0,0,.07,1.13q.11.53.57.51a.8.8,0,0,0,.63-.45,6.72,6.72,0,0,0,.55-1.23l.1-.28h.46l-.08.26A4.59,4.59,0,0,1,42,16.75a1.89,1.89,0,0,1-1.49.61A1.66,1.66,0,0,1,39,16.77a1.91,1.91,0,0,1-.38-1.33l.16-2.24a4.18,4.18,0,0,0-.15-1.68,1.55,1.55,0,0,0-1.06-.89A9,9,0,0,0,35,10.36Z" transform="translate(0 -2.64)"/><path class="cls-1" d="M58.14,2.92c-.2.52-.41,1.15-.62,1.89s-.43,1.64-.66,2.71h-.44a8.09,8.09,0,0,0,.11-1.75,3.07,3.07,0,0,0-.31-1.21A2.66,2.66,0,0,0,55.13,3.4,3,3,0,0,0,53.6,3a3.75,3.75,0,0,0-2,.61,7.55,7.55,0,0,0-1.82,1.65,12.52,12.52,0,0,0-1.48,2.35,13.86,13.86,0,0,0-1,2.72,11.11,11.11,0,0,0-.36,2.75A4.71,4.71,0,0,0,47.69,16a2.52,2.52,0,0,0,2.09,1,4.85,4.85,0,0,0,1.83-.4,5,5,0,0,0,1.73-1.16,5.27,5.27,0,0,0,.93-1.27q.39-.74.87-1.89h.44c-.33,1.21-.59,2.19-.77,2.93s-.32,1.36-.41,1.87H54A5.07,5.07,0,0,0,54,16.4c0-.31-.05-.48-.16-.51s-.27,0-.5.17a12.3,12.3,0,0,1-1.64.92,5.19,5.19,0,0,1-2.14.38,4.74,4.74,0,0,1-3.43-1.19,4.66,4.66,0,0,1-1.23-3.51,9.65,9.65,0,0,1,.42-2.77,11.86,11.86,0,0,1,1.2-2.71A10.77,10.77,0,0,1,48.4,4.86a8.75,8.75,0,0,1,2.4-1.62,6.79,6.79,0,0,1,2.84-.6,3.53,3.53,0,0,1,1.91.4,5.93,5.93,0,0,1,1.07.9c.19.19.36.21.53.07a2.76,2.76,0,0,0,.57-1.09Z" transform="translate(0 -2.64)"/><path class="cls-1" d="M60.62,15c-.19.73-.21,1.2-.06,1.39s.56.3,1.24.33l-.08.4c-.31,0-.69,0-1.15,0H57.74c-.44,0-.81,0-1.1,0l.1-.4a4.55,4.55,0,0,0,1-.16,1.06,1.06,0,0,0,.59-.48,3.91,3.91,0,0,0,.4-1.08L61.4,5c.19-.73.2-1.2.05-1.39s-.56-.3-1.23-.33l.1-.4L61.4,3l1.46,0,1.39,0,1.17,0-.1.4a3.52,3.52,0,0,0-1.06.15,1.12,1.12,0,0,0-.59.48A4.39,4.39,0,0,0,63.26,5Zm.9-4.8.14-.4h7.06l-.16.4ZM69.68,5c.2-.73.22-1.2.06-1.39s-.57-.3-1.24-.33l.1-.4,1.15,0,1.37,0,1.46,0,1.12,0-.1.4a3.52,3.52,0,0,0-1.06.15A1.12,1.12,0,0,0,72,4,4.39,4.39,0,0,0,71.54,5L68.9,15c-.19.73-.21,1.2-.06,1.39s.56.3,1.24.33l-.08.4c-.28,0-.65,0-1.1,0H66.06c-.47,0-.85,0-1.16,0l.08-.4A4.76,4.76,0,0,0,66,16.52a1.08,1.08,0,0,0,.6-.48A3.91,3.91,0,0,0,67,15Z" transform="translate(0 -2.64)"/></g></g></svg>